<?xml version="1.0" encoding="utf-8" standalone="no"?>
<!DOCTYPE svg PUBLIC "-//W3C//DTD SVG 1.1//EN"
  "http://www.w3.org/Graphics/SVG/1.1/DTD/svg11.dtd">
<!-- Created with matplotlib (https://matplotlib.org/) -->
<svg height="720pt" version="1.1" viewBox="0 0 1152 720" width="1152pt" xmlns="http://www.w3.org/2000/svg" xmlns:xlink="http://www.w3.org/1999/xlink">
 <defs>
  <style type="text/css">
*{stroke-linecap:butt;stroke-linejoin:round;}
  </style>
 </defs>
 <g id="figure_1">
  <g id="patch_1">
   <path d="M 0 720 
L 1152 720 
L 1152 0 
L 0 0 
z
" style="fill:#ffffff;"/>
  </g>
  <g id="axes_1">
   <g id="patch_2">
    <path d="M 144 630 
L 1036.8 630 
L 1036.8 86.4 
L 144 86.4 
z
" style="fill:#ffffff;"/>
   </g>
   <g id="matplotlib.axis_1">
    <g id="xtick_1">
     <g id="line2d_1">
      <defs>
       <path d="M 0 0 
L 0 3.5 
" id="m646efce37e" style="stroke:#000000;stroke-width:0.8;"/>
      </defs>
      <g>
       <use style="stroke:#000000;stroke-width:0.8;" x="153.639128" xlink:href="#m646efce37e" y="630"/>
      </g>
     </g>
     <g id="text_1">
      <!-- 0.0 -->
      <defs>
       <path d="M 31.78125 66.40625 
Q 24.171875 66.40625 20.328125 58.90625 
Q 16.5 51.421875 16.5 36.375 
Q 16.5 21.390625 20.328125 13.890625 
Q 24.171875 6.390625 31.78125 6.390625 
Q 39.453125 6.390625 43.28125 13.890625 
Q 47.125 21.390625 47.125 36.375 
Q 47.125 51.421875 43.28125 58.90625 
Q 39.453125 66.40625 31.78125 66.40625 
z
M 31.78125 74.21875 
Q 44.046875 74.21875 50.515625 64.515625 
Q 56.984375 54.828125 56.984375 36.375 
Q 56.984375 17.96875 50.515625 8.265625 
Q 44.046875 -1.421875 31.78125 -1.421875 
Q 19.53125 -1.421875 13.0625 8.265625 
Q 6.59375 17.96875 6.59375 36.375 
Q 6.59375 54.828125 13.0625 64.515625 
Q 19.53125 74.21875 31.78125 74.21875 
z
" id="DejaVuSans-48"/>
       <path d="M 10.6875 12.40625 
L 21 12.40625 
L 21 0 
L 10.6875 0 
z
" id="DejaVuSans-46"/>
      </defs>
      <g transform="translate(145.687566 644.598438)scale(0.1 -0.1)">
       <use xlink:href="#DejaVuSans-48"/>
       <use x="63.623047" xlink:href="#DejaVuSans-46"/>
       <use x="95.410156" xlink:href="#DejaVuSans-48"/>
      </g>
     </g>
    </g>
    <g id="xtick_2">
     <g id="line2d_2">
      <g>
       <use style="stroke:#000000;stroke-width:0.8;" x="251.768114" xlink:href="#m646efce37e" y="630"/>
      </g>
     </g>
     <g id="text_2">
      <!-- 0.2 -->
      <defs>
       <path d="M 19.1875 8.296875 
L 53.609375 8.296875 
L 53.609375 0 
L 7.328125 0 
L 7.328125 8.296875 
Q 12.9375 14.109375 22.625 23.890625 
Q 32.328125 33.6875 34.8125 36.53125 
Q 39.546875 41.84375 41.421875 45.53125 
Q 43.3125 49.21875 43.3125 52.78125 
Q 43.3125 58.59375 39.234375 62.25 
Q 35.15625 65.921875 28.609375 65.921875 
Q 23.96875 65.921875 18.8125 64.3125 
Q 13.671875 62.703125 7.8125 59.421875 
L 7.8125 69.390625 
Q 13.765625 71.78125 18.9375 73 
Q 24.125 74.21875 28.421875 74.21875 
Q 39.75 74.21875 46.484375 68.546875 
Q 53.21875 62.890625 53.21875 53.421875 
Q 53.21875 48.921875 51.53125 44.890625 
Q 49.859375 40.875 45.40625 35.40625 
Q 44.1875 33.984375 37.640625 27.21875 
Q 31.109375 20.453125 19.1875 8.296875 
z
" id="DejaVuSans-50"/>
      </defs>
      <g transform="translate(243.816552 644.598438)scale(0.1 -0.1)">
       <use xlink:href="#DejaVuSans-48"/>
       <use x="63.623047" xlink:href="#DejaVuSans-46"/>
       <use x="95.410156" xlink:href="#DejaVuSans-50"/>
      </g>
     </g>
    </g>
    <g id="xtick_3">
     <g id="line2d_3">
      <g>
       <use style="stroke:#000000;stroke-width:0.8;" x="349.8971" xlink:href="#m646efce37e" y="630"/>
      </g>
     </g>
     <g id="text_3">
      <!-- 0.4 -->
      <defs>
       <path d="M 37.796875 64.3125 
L 12.890625 25.390625 
L 37.796875 25.390625 
z
M 35.203125 72.90625 
L 47.609375 72.90625 
L 47.609375 25.390625 
L 58.015625 25.390625 
L 58.015625 17.1875 
L 47.609375 17.1875 
L 47.609375 0 
L 37.796875 0 
L 37.796875 17.1875 
L 4.890625 17.1875 
L 4.890625 26.703125 
z
" id="DejaVuSans-52"/>
      </defs>
      <g transform="translate(341.945537 644.598438)scale(0.1 -0.1)">
       <use xlink:href="#DejaVuSans-48"/>
       <use x="63.623047" xlink:href="#DejaVuSans-46"/>
       <use x="95.410156" xlink:href="#DejaVuSans-52"/>
      </g>
     </g>
    </g>
    <g id="xtick_4">
     <g id="line2d_4">
      <g>
       <use style="stroke:#000000;stroke-width:0.8;" x="448.026086" xlink:href="#m646efce37e" y="630"/>
      </g>
     </g>
     <g id="text_4">
      <!-- 0.6 -->
      <defs>
       <path d="M 33.015625 40.375 
Q 26.375 40.375 22.484375 35.828125 
Q 18.609375 31.296875 18.609375 23.390625 
Q 18.609375 15.53125 22.484375 10.953125 
Q 26.375 6.390625 33.015625 6.390625 
Q 39.65625 6.390625 43.53125 10.953125 
Q 47.40625 15.53125 47.40625 23.390625 
Q 47.40625 31.296875 43.53125 35.828125 
Q 39.65625 40.375 33.015625 40.375 
z
M 52.59375 71.296875 
L 52.59375 62.3125 
Q 48.875 64.0625 45.09375 64.984375 
Q 41.3125 65.921875 37.59375 65.921875 
Q 27.828125 65.921875 22.671875 59.328125 
Q 17.53125 52.734375 16.796875 39.40625 
Q 19.671875 43.65625 24.015625 45.921875 
Q 28.375 48.1875 33.59375 48.1875 
Q 44.578125 48.1875 50.953125 41.515625 
Q 57.328125 34.859375 57.328125 23.390625 
Q 57.328125 12.15625 50.6875 5.359375 
Q 44.046875 -1.421875 33.015625 -1.421875 
Q 20.359375 -1.421875 13.671875 8.265625 
Q 6.984375 17.96875 6.984375 36.375 
Q 6.984375 53.65625 15.1875 63.9375 
Q 23.390625 74.21875 37.203125 74.21875 
Q 40.921875 74.21875 44.703125 73.484375 
Q 48.484375 72.75 52.59375 71.296875 
z
" id="DejaVuSans-54"/>
      </defs>
      <g transform="translate(440.074523 644.598438)scale(0.1 -0.1)">
       <use xlink:href="#DejaVuSans-48"/>
       <use x="63.623047" xlink:href="#DejaVuSans-46"/>
       <use x="95.410156" xlink:href="#DejaVuSans-54"/>
      </g>
     </g>
    </g>
    <g id="xtick_5">
     <g id="line2d_5">
      <g>
       <use style="stroke:#000000;stroke-width:0.8;" x="546.155071" xlink:href="#m646efce37e" y="630"/>
      </g>
     </g>
     <g id="text_5">
      <!-- 0.8 -->
      <defs>
       <path d="M 31.78125 34.625 
Q 24.75 34.625 20.71875 30.859375 
Q 16.703125 27.09375 16.703125 20.515625 
Q 16.703125 13.921875 20.71875 10.15625 
Q 24.75 6.390625 31.78125 6.390625 
Q 38.8125 6.390625 42.859375 10.171875 
Q 46.921875 13.96875 46.921875 20.515625 
Q 46.921875 27.09375 42.890625 30.859375 
Q 38.875 34.625 31.78125 34.625 
z
M 21.921875 38.8125 
Q 15.578125 40.375 12.03125 44.71875 
Q 8.5 49.078125 8.5 55.328125 
Q 8.5 64.0625 14.71875 69.140625 
Q 20.953125 74.21875 31.78125 74.21875 
Q 42.671875 74.21875 48.875 69.140625 
Q 55.078125 64.0625 55.078125 55.328125 
Q 55.078125 49.078125 51.53125 44.71875 
Q 48 40.375 41.703125 38.8125 
Q 48.828125 37.15625 52.796875 32.3125 
Q 56.78125 27.484375 56.78125 20.515625 
Q 56.78125 9.90625 50.3125 4.234375 
Q 43.84375 -1.421875 31.78125 -1.421875 
Q 19.734375 -1.421875 13.25 4.234375 
Q 6.78125 9.90625 6.78125 20.515625 
Q 6.78125 27.484375 10.78125 32.3125 
Q 14.796875 37.15625 21.921875 38.8125 
z
M 18.3125 54.390625 
Q 18.3125 48.734375 21.84375 45.5625 
Q 25.390625 42.390625 31.78125 42.390625 
Q 38.140625 42.390625 41.71875 45.5625 
Q 45.3125 48.734375 45.3125 54.390625 
Q 45.3125 60.0625 41.71875 63.234375 
Q 38.140625 66.40625 31.78125 66.40625 
Q 25.390625 66.40625 21.84375 63.234375 
Q 18.3125 60.0625 18.3125 54.390625 
z
" id="DejaVuSans-56"/>
      </defs>
      <g transform="translate(538.203509 644.598438)scale(0.1 -0.1)">
       <use xlink:href="#DejaVuSans-48"/>
       <use x="63.623047" xlink:href="#DejaVuSans-46"/>
       <use x="95.410156" xlink:href="#DejaVuSans-56"/>
      </g>
     </g>
    </g>
    <g id="xtick_6">
     <g id="line2d_6">
      <g>
       <use style="stroke:#000000;stroke-width:0.8;" x="644.284057" xlink:href="#m646efce37e" y="630"/>
      </g>
     </g>
     <g id="text_6">
      <!-- 1.0 -->
      <defs>
       <path d="M 12.40625 8.296875 
L 28.515625 8.296875 
L 28.515625 63.921875 
L 10.984375 60.40625 
L 10.984375 69.390625 
L 28.421875 72.90625 
L 38.28125 72.90625 
L 38.28125 8.296875 
L 54.390625 8.296875 
L 54.390625 0 
L 12.40625 0 
z
" id="DejaVuSans-49"/>
      </defs>
      <g transform="translate(636.332495 644.598438)scale(0.1 -0.1)">
       <use xlink:href="#DejaVuSans-49"/>
       <use x="63.623047" xlink:href="#DejaVuSans-46"/>
       <use x="95.410156" xlink:href="#DejaVuSans-48"/>
      </g>
     </g>
    </g>
    <g id="xtick_7">
     <g id="line2d_7">
      <g>
       <use style="stroke:#000000;stroke-width:0.8;" x="742.413043" xlink:href="#m646efce37e" y="630"/>
      </g>
     </g>
     <g id="text_7">
      <!-- 1.2 -->
      <g transform="translate(734.46148 644.598438)scale(0.1 -0.1)">
       <use xlink:href="#DejaVuSans-49"/>
       <use x="63.623047" xlink:href="#DejaVuSans-46"/>
       <use x="95.410156" xlink:href="#DejaVuSans-50"/>
      </g>
     </g>
    </g>
    <g id="xtick_8">
     <g id="line2d_8">
      <g>
       <use style="stroke:#000000;stroke-width:0.8;" x="840.542029" xlink:href="#m646efce37e" y="630"/>
      </g>
     </g>
     <g id="text_8">
      <!-- 1.4 -->
      <g transform="translate(832.590466 644.598438)scale(0.1 -0.1)">
       <use xlink:href="#DejaVuSans-49"/>
       <use x="63.623047" xlink:href="#DejaVuSans-46"/>
       <use x="95.410156" xlink:href="#DejaVuSans-52"/>
      </g>
     </g>
    </g>
    <g id="xtick_9">
     <g id="line2d_9">
      <g>
       <use style="stroke:#000000;stroke-width:0.8;" x="938.671014" xlink:href="#m646efce37e" y="630"/>
      </g>
     </g>
     <g id="text_9">
      <!-- 1.6 -->
      <g transform="translate(930.719452 644.598438)scale(0.1 -0.1)">
       <use xlink:href="#DejaVuSans-49"/>
       <use x="63.623047" xlink:href="#DejaVuSans-46"/>
       <use x="95.410156" xlink:href="#DejaVuSans-54"/>
      </g>
     </g>
    </g>
    <g id="xtick_10">
     <g id="line2d_10">
      <g>
       <use style="stroke:#000000;stroke-width:0.8;" x="1036.8" xlink:href="#m646efce37e" y="630"/>
      </g>
     </g>
     <g id="text_10">
      <!-- 1.8 -->
      <g transform="translate(1028.848438 644.598438)scale(0.1 -0.1)">
       <use xlink:href="#DejaVuSans-49"/>
       <use x="63.623047" xlink:href="#DejaVuSans-46"/>
       <use x="95.410156" xlink:href="#DejaVuSans-56"/>
      </g>
     </g>
    </g>
    <g id="text_11">
     <!-- wall-clock time (days) -->
     <defs>
      <path d="M 4.203125 54.6875 
L 13.1875 54.6875 
L 24.421875 12.015625 
L 35.59375 54.6875 
L 46.1875 54.6875 
L 57.421875 12.015625 
L 68.609375 54.6875 
L 77.59375 54.6875 
L 63.28125 0 
L 52.6875 0 
L 40.921875 44.828125 
L 29.109375 0 
L 18.5 0 
z
" id="DejaVuSans-119"/>
      <path d="M 34.28125 27.484375 
Q 23.390625 27.484375 19.1875 25 
Q 14.984375 22.515625 14.984375 16.5 
Q 14.984375 11.71875 18.140625 8.90625 
Q 21.296875 6.109375 26.703125 6.109375 
Q 34.1875 6.109375 38.703125 11.40625 
Q 43.21875 16.703125 43.21875 25.484375 
L 43.21875 27.484375 
z
M 52.203125 31.203125 
L 52.203125 0 
L 43.21875 0 
L 43.21875 8.296875 
Q 40.140625 3.328125 35.546875 0.953125 
Q 30.953125 -1.421875 24.3125 -1.421875 
Q 15.921875 -1.421875 10.953125 3.296875 
Q 6 8.015625 6 15.921875 
Q 6 25.140625 12.171875 29.828125 
Q 18.359375 34.515625 30.609375 34.515625 
L 43.21875 34.515625 
L 43.21875 35.40625 
Q 43.21875 41.609375 39.140625 45 
Q 35.0625 48.390625 27.6875 48.390625 
Q 23 48.390625 18.546875 47.265625 
Q 14.109375 46.140625 10.015625 43.890625 
L 10.015625 52.203125 
Q 14.9375 54.109375 19.578125 55.046875 
Q 24.21875 56 28.609375 56 
Q 40.484375 56 46.34375 49.84375 
Q 52.203125 43.703125 52.203125 31.203125 
z
" id="DejaVuSans-97"/>
      <path d="M 9.421875 75.984375 
L 18.40625 75.984375 
L 18.40625 0 
L 9.421875 0 
z
" id="DejaVuSans-108"/>
      <path d="M 4.890625 31.390625 
L 31.203125 31.390625 
L 31.203125 23.390625 
L 4.890625 23.390625 
z
" id="DejaVuSans-45"/>
      <path d="M 48.78125 52.59375 
L 48.78125 44.1875 
Q 44.96875 46.296875 41.140625 47.34375 
Q 37.3125 48.390625 33.40625 48.390625 
Q 24.65625 48.390625 19.8125 42.84375 
Q 14.984375 37.3125 14.984375 27.296875 
Q 14.984375 17.28125 19.8125 11.734375 
Q 24.65625 6.203125 33.40625 6.203125 
Q 37.3125 6.203125 41.140625 7.25 
Q 44.96875 8.296875 48.78125 10.40625 
L 48.78125 2.09375 
Q 45.015625 0.34375 40.984375 -0.53125 
Q 36.96875 -1.421875 32.421875 -1.421875 
Q 20.0625 -1.421875 12.78125 6.34375 
Q 5.515625 14.109375 5.515625 27.296875 
Q 5.515625 40.671875 12.859375 48.328125 
Q 20.21875 56 33.015625 56 
Q 37.15625 56 41.109375 55.140625 
Q 45.0625 54.296875 48.78125 52.59375 
z
" id="DejaVuSans-99"/>
      <path d="M 30.609375 48.390625 
Q 23.390625 48.390625 19.1875 42.75 
Q 14.984375 37.109375 14.984375 27.296875 
Q 14.984375 17.484375 19.15625 11.84375 
Q 23.34375 6.203125 30.609375 6.203125 
Q 37.796875 6.203125 41.984375 11.859375 
Q 46.1875 17.53125 46.1875 27.296875 
Q 46.1875 37.015625 41.984375 42.703125 
Q 37.796875 48.390625 30.609375 48.390625 
z
M 30.609375 56 
Q 42.328125 56 49.015625 48.375 
Q 55.71875 40.765625 55.71875 27.296875 
Q 55.71875 13.875 49.015625 6.21875 
Q 42.328125 -1.421875 30.609375 -1.421875 
Q 18.84375 -1.421875 12.171875 6.21875 
Q 5.515625 13.875 5.515625 27.296875 
Q 5.515625 40.765625 12.171875 48.375 
Q 18.84375 56 30.609375 56 
z
" id="DejaVuSans-111"/>
      <path d="M 9.078125 75.984375 
L 18.109375 75.984375 
L 18.109375 31.109375 
L 44.921875 54.6875 
L 56.390625 54.6875 
L 27.390625 29.109375 
L 57.625 0 
L 45.90625 0 
L 18.109375 26.703125 
L 18.109375 0 
L 9.078125 0 
z
" id="DejaVuSans-107"/>
      <path id="DejaVuSans-32"/>
      <path d="M 18.3125 70.21875 
L 18.3125 54.6875 
L 36.8125 54.6875 
L 36.8125 47.703125 
L 18.3125 47.703125 
L 18.3125 18.015625 
Q 18.3125 11.328125 20.140625 9.421875 
Q 21.96875 7.515625 27.59375 7.515625 
L 36.8125 7.515625 
L 36.8125 0 
L 27.59375 0 
Q 17.1875 0 13.234375 3.875 
Q 9.28125 7.765625 9.28125 18.015625 
L 9.28125 47.703125 
L 2.6875 47.703125 
L 2.6875 54.6875 
L 9.28125 54.6875 
L 9.28125 70.21875 
z
" id="DejaVuSans-116"/>
      <path d="M 9.421875 54.6875 
L 18.40625 54.6875 
L 18.40625 0 
L 9.421875 0 
z
M 9.421875 75.984375 
L 18.40625 75.984375 
L 18.40625 64.59375 
L 9.421875 64.59375 
z
" id="DejaVuSans-105"/>
      <path d="M 52 44.1875 
Q 55.375 50.25 60.0625 53.125 
Q 64.75 56 71.09375 56 
Q 79.640625 56 84.28125 50.015625 
Q 88.921875 44.046875 88.921875 33.015625 
L 88.921875 0 
L 79.890625 0 
L 79.890625 32.71875 
Q 79.890625 40.578125 77.09375 44.375 
Q 74.3125 48.1875 68.609375 48.1875 
Q 61.625 48.1875 57.5625 43.546875 
Q 53.515625 38.921875 53.515625 30.90625 
L 53.515625 0 
L 44.484375 0 
L 44.484375 32.71875 
Q 44.484375 40.625 41.703125 44.40625 
Q 38.921875 48.1875 33.109375 48.1875 
Q 26.21875 48.1875 22.15625 43.53125 
Q 18.109375 38.875 18.109375 30.90625 
L 18.109375 0 
L 9.078125 0 
L 9.078125 54.6875 
L 18.109375 54.6875 
L 18.109375 46.1875 
Q 21.1875 51.21875 25.484375 53.609375 
Q 29.78125 56 35.6875 56 
Q 41.65625 56 45.828125 52.96875 
Q 50 49.953125 52 44.1875 
z
" id="DejaVuSans-109"/>
      <path d="M 56.203125 29.59375 
L 56.203125 25.203125 
L 14.890625 25.203125 
Q 15.484375 15.921875 20.484375 11.0625 
Q 25.484375 6.203125 34.421875 6.203125 
Q 39.59375 6.203125 44.453125 7.46875 
Q 49.3125 8.734375 54.109375 11.28125 
L 54.109375 2.78125 
Q 49.265625 0.734375 44.1875 -0.34375 
Q 39.109375 -1.421875 33.890625 -1.421875 
Q 20.796875 -1.421875 13.15625 6.1875 
Q 5.515625 13.8125 5.515625 26.8125 
Q 5.515625 40.234375 12.765625 48.109375 
Q 20.015625 56 32.328125 56 
Q 43.359375 56 49.78125 48.890625 
Q 56.203125 41.796875 56.203125 29.59375 
z
M 47.21875 32.234375 
Q 47.125 39.59375 43.09375 43.984375 
Q 39.0625 48.390625 32.421875 48.390625 
Q 24.90625 48.390625 20.390625 44.140625 
Q 15.875 39.890625 15.1875 32.171875 
z
" id="DejaVuSans-101"/>
      <path d="M 31 75.875 
Q 24.46875 64.65625 21.28125 53.65625 
Q 18.109375 42.671875 18.109375 31.390625 
Q 18.109375 20.125 21.3125 9.0625 
Q 24.515625 -2 31 -13.1875 
L 23.1875 -13.1875 
Q 15.875 -1.703125 12.234375 9.375 
Q 8.59375 20.453125 8.59375 31.390625 
Q 8.59375 42.28125 12.203125 53.3125 
Q 15.828125 64.359375 23.1875 75.875 
z
" id="DejaVuSans-40"/>
      <path d="M 45.40625 46.390625 
L 45.40625 75.984375 
L 54.390625 75.984375 
L 54.390625 0 
L 45.40625 0 
L 45.40625 8.203125 
Q 42.578125 3.328125 38.25 0.953125 
Q 33.9375 -1.421875 27.875 -1.421875 
Q 17.96875 -1.421875 11.734375 6.484375 
Q 5.515625 14.40625 5.515625 27.296875 
Q 5.515625 40.1875 11.734375 48.09375 
Q 17.96875 56 27.875 56 
Q 33.9375 56 38.25 53.625 
Q 42.578125 51.265625 45.40625 46.390625 
z
M 14.796875 27.296875 
Q 14.796875 17.390625 18.875 11.75 
Q 22.953125 6.109375 30.078125 6.109375 
Q 37.203125 6.109375 41.296875 11.75 
Q 45.40625 17.390625 45.40625 27.296875 
Q 45.40625 37.203125 41.296875 42.84375 
Q 37.203125 48.484375 30.078125 48.484375 
Q 22.953125 48.484375 18.875 42.84375 
Q 14.796875 37.203125 14.796875 27.296875 
z
" id="DejaVuSans-100"/>
      <path d="M 32.171875 -5.078125 
Q 28.375 -14.84375 24.75 -17.8125 
Q 21.140625 -20.796875 15.09375 -20.796875 
L 7.90625 -20.796875 
L 7.90625 -13.28125 
L 13.1875 -13.28125 
Q 16.890625 -13.28125 18.9375 -11.515625 
Q 21 -9.765625 23.484375 -3.21875 
L 25.09375 0.875 
L 2.984375 54.6875 
L 12.5 54.6875 
L 29.59375 11.921875 
L 46.6875 54.6875 
L 56.203125 54.6875 
z
" id="DejaVuSans-121"/>
      <path d="M 44.28125 53.078125 
L 44.28125 44.578125 
Q 40.484375 46.53125 36.375 47.5 
Q 32.28125 48.484375 27.875 48.484375 
Q 21.1875 48.484375 17.84375 46.4375 
Q 14.5 44.390625 14.5 40.28125 
Q 14.5 37.15625 16.890625 35.375 
Q 19.28125 33.59375 26.515625 31.984375 
L 29.59375 31.296875 
Q 39.15625 29.25 43.1875 25.515625 
Q 47.21875 21.78125 47.21875 15.09375 
Q 47.21875 7.46875 41.1875 3.015625 
Q 35.15625 -1.421875 24.609375 -1.421875 
Q 20.21875 -1.421875 15.453125 -0.5625 
Q 10.6875 0.296875 5.421875 2 
L 5.421875 11.28125 
Q 10.40625 8.6875 15.234375 7.390625 
Q 20.0625 6.109375 24.8125 6.109375 
Q 31.15625 6.109375 34.5625 8.28125 
Q 37.984375 10.453125 37.984375 14.40625 
Q 37.984375 18.0625 35.515625 20.015625 
Q 33.0625 21.96875 24.703125 23.78125 
L 21.578125 24.515625 
Q 13.234375 26.265625 9.515625 29.90625 
Q 5.8125 33.546875 5.8125 39.890625 
Q 5.8125 47.609375 11.28125 51.796875 
Q 16.75 56 26.8125 56 
Q 31.78125 56 36.171875 55.265625 
Q 40.578125 54.546875 44.28125 53.078125 
z
" id="DejaVuSans-115"/>
      <path d="M 8.015625 75.875 
L 15.828125 75.875 
Q 23.140625 64.359375 26.78125 53.3125 
Q 30.421875 42.28125 30.421875 31.390625 
Q 30.421875 20.453125 26.78125 9.375 
Q 23.140625 -1.703125 15.828125 -13.1875 
L 8.015625 -13.1875 
Q 14.5 -2 17.703125 9.0625 
Q 20.90625 20.125 20.90625 31.390625 
Q 20.90625 42.671875 17.703125 53.65625 
Q 14.5 64.65625 8.015625 75.875 
z
" id="DejaVuSans-41"/>
     </defs>
     <g transform="translate(535.644531 658.276562)scale(0.1 -0.1)">
      <use xlink:href="#DejaVuSans-119"/>
      <use x="81.787109" xlink:href="#DejaVuSans-97"/>
      <use x="143.066406" xlink:href="#DejaVuSans-108"/>
      <use x="170.849609" xlink:href="#DejaVuSans-108"/>
      <use x="198.632812" xlink:href="#DejaVuSans-45"/>
      <use x="234.716797" xlink:href="#DejaVuSans-99"/>
      <use x="289.697266" xlink:href="#DejaVuSans-108"/>
      <use x="317.480469" xlink:href="#DejaVuSans-111"/>
      <use x="378.662109" xlink:href="#DejaVuSans-99"/>
      <use x="433.642578" xlink:href="#DejaVuSans-107"/>
      <use x="491.552734" xlink:href="#DejaVuSans-32"/>
      <use x="523.339844" xlink:href="#DejaVuSans-116"/>
      <use x="562.548828" xlink:href="#DejaVuSans-105"/>
      <use x="590.332031" xlink:href="#DejaVuSans-109"/>
      <use x="687.744141" xlink:href="#DejaVuSans-101"/>
      <use x="749.267578" xlink:href="#DejaVuSans-32"/>
      <use x="781.054688" xlink:href="#DejaVuSans-40"/>
      <use x="820.068359" xlink:href="#DejaVuSans-100"/>
      <use x="883.544922" xlink:href="#DejaVuSans-97"/>
      <use x="944.824219" xlink:href="#DejaVuSans-121"/>
      <use x="1004.003906" xlink:href="#DejaVuSans-115"/>
      <use x="1056.103516" xlink:href="#DejaVuSans-41"/>
     </g>
    </g>
   </g>
   <g id="matplotlib.axis_2">
    <g id="ytick_1">
     <g id="line2d_11">
      <defs>
       <path d="M 0 0 
L -3.5 0 
" id="mfca21e0bb3" style="stroke:#000000;stroke-width:0.8;"/>
      </defs>
      <g>
       <use style="stroke:#000000;stroke-width:0.8;" x="144" xlink:href="#mfca21e0bb3" y="630"/>
      </g>
     </g>
     <g id="text_12">
      <!-- −300000 -->
      <defs>
       <path d="M 10.59375 35.5 
L 73.1875 35.5 
L 73.1875 27.203125 
L 10.59375 27.203125 
z
" id="DejaVuSans-8722"/>
       <path d="M 40.578125 39.3125 
Q 47.65625 37.796875 51.625 33 
Q 55.609375 28.21875 55.609375 21.1875 
Q 55.609375 10.40625 48.1875 4.484375 
Q 40.765625 -1.421875 27.09375 -1.421875 
Q 22.515625 -1.421875 17.65625 -0.515625 
Q 12.796875 0.390625 7.625 2.203125 
L 7.625 11.71875 
Q 11.71875 9.328125 16.59375 8.109375 
Q 21.484375 6.890625 26.8125 6.890625 
Q 36.078125 6.890625 40.9375 10.546875 
Q 45.796875 14.203125 45.796875 21.1875 
Q 45.796875 27.640625 41.28125 31.265625 
Q 36.765625 34.90625 28.71875 34.90625 
L 20.21875 34.90625 
L 20.21875 43.015625 
L 29.109375 43.015625 
Q 36.375 43.015625 40.234375 45.921875 
Q 44.09375 48.828125 44.09375 54.296875 
Q 44.09375 59.90625 40.109375 62.90625 
Q 36.140625 65.921875 28.71875 65.921875 
Q 24.65625 65.921875 20.015625 65.03125 
Q 15.375 64.15625 9.8125 62.3125 
L 9.8125 71.09375 
Q 15.4375 72.65625 20.34375 73.4375 
Q 25.25 74.21875 29.59375 74.21875 
Q 40.828125 74.21875 47.359375 69.109375 
Q 53.90625 64.015625 53.90625 55.328125 
Q 53.90625 49.265625 50.4375 45.09375 
Q 46.96875 40.921875 40.578125 39.3125 
z
" id="DejaVuSans-51"/>
      </defs>
      <g transform="translate(90.445312 633.799219)scale(0.1 -0.1)">
       <use xlink:href="#DejaVuSans-8722"/>
       <use x="83.789062" xlink:href="#DejaVuSans-51"/>
       <use x="147.412109" xlink:href="#DejaVuSans-48"/>
       <use x="211.035156" xlink:href="#DejaVuSans-48"/>
       <use x="274.658203" xlink:href="#DejaVuSans-48"/>
       <use x="338.28125" xlink:href="#DejaVuSans-48"/>
       <use x="401.904297" xlink:href="#DejaVuSans-48"/>
      </g>
     </g>
    </g>
    <g id="ytick_2">
     <g id="line2d_12">
      <g>
       <use style="stroke:#000000;stroke-width:0.8;" x="144" xlink:href="#mfca21e0bb3" y="611.88"/>
      </g>
     </g>
     <g id="text_13">
      <!-- −290000 -->
      <defs>
       <path d="M 10.984375 1.515625 
L 10.984375 10.5 
Q 14.703125 8.734375 18.5 7.8125 
Q 22.3125 6.890625 25.984375 6.890625 
Q 35.75 6.890625 40.890625 13.453125 
Q 46.046875 20.015625 46.78125 33.40625 
Q 43.953125 29.203125 39.59375 26.953125 
Q 35.25 24.703125 29.984375 24.703125 
Q 19.046875 24.703125 12.671875 31.3125 
Q 6.296875 37.9375 6.296875 49.421875 
Q 6.296875 60.640625 12.9375 67.421875 
Q 19.578125 74.21875 30.609375 74.21875 
Q 43.265625 74.21875 49.921875 64.515625 
Q 56.59375 54.828125 56.59375 36.375 
Q 56.59375 19.140625 48.40625 8.859375 
Q 40.234375 -1.421875 26.421875 -1.421875 
Q 22.703125 -1.421875 18.890625 -0.6875 
Q 15.09375 0.046875 10.984375 1.515625 
z
M 30.609375 32.421875 
Q 37.25 32.421875 41.125 36.953125 
Q 45.015625 41.5 45.015625 49.421875 
Q 45.015625 57.28125 41.125 61.84375 
Q 37.25 66.40625 30.609375 66.40625 
Q 23.96875 66.40625 20.09375 61.84375 
Q 16.21875 57.28125 16.21875 49.421875 
Q 16.21875 41.5 20.09375 36.953125 
Q 23.96875 32.421875 30.609375 32.421875 
z
" id="DejaVuSans-57"/>
      </defs>
      <g transform="translate(90.445312 615.679219)scale(0.1 -0.1)">
       <use xlink:href="#DejaVuSans-8722"/>
       <use x="83.789062" xlink:href="#DejaVuSans-50"/>
       <use x="147.412109" xlink:href="#DejaVuSans-57"/>
       <use x="211.035156" xlink:href="#DejaVuSans-48"/>
       <use x="274.658203" xlink:href="#DejaVuSans-48"/>
       <use x="338.28125" xlink:href="#DejaVuSans-48"/>
       <use x="401.904297" xlink:href="#DejaVuSans-48"/>
      </g>
     </g>
    </g>
    <g id="ytick_3">
     <g id="line2d_13">
      <g>
       <use style="stroke:#000000;stroke-width:0.8;" x="144" xlink:href="#mfca21e0bb3" y="593.76"/>
      </g>
     </g>
     <g id="text_14">
      <!-- −280000 -->
      <g transform="translate(90.445312 597.559219)scale(0.1 -0.1)">
       <use xlink:href="#DejaVuSans-8722"/>
       <use x="83.789062" xlink:href="#DejaVuSans-50"/>
       <use x="147.412109" xlink:href="#DejaVuSans-56"/>
       <use x="211.035156" xlink:href="#DejaVuSans-48"/>
       <use x="274.658203" xlink:href="#DejaVuSans-48"/>
       <use x="338.28125" xlink:href="#DejaVuSans-48"/>
       <use x="401.904297" xlink:href="#DejaVuSans-48"/>
      </g>
     </g>
    </g>
    <g id="ytick_4">
     <g id="line2d_14">
      <g>
       <use style="stroke:#000000;stroke-width:0.8;" x="144" xlink:href="#mfca21e0bb3" y="575.64"/>
      </g>
     </g>
     <g id="text_15">
      <!-- −270000 -->
      <defs>
       <path d="M 8.203125 72.90625 
L 55.078125 72.90625 
L 55.078125 68.703125 
L 28.609375 0 
L 18.3125 0 
L 43.21875 64.59375 
L 8.203125 64.59375 
z
" id="DejaVuSans-55"/>
      </defs>
      <g transform="translate(90.445312 579.439219)scale(0.1 -0.1)">
       <use xlink:href="#DejaVuSans-8722"/>
       <use x="83.789062" xlink:href="#DejaVuSans-50"/>
       <use x="147.412109" xlink:href="#DejaVuSans-55"/>
       <use x="211.035156" xlink:href="#DejaVuSans-48"/>
       <use x="274.658203" xlink:href="#DejaVuSans-48"/>
       <use x="338.28125" xlink:href="#DejaVuSans-48"/>
       <use x="401.904297" xlink:href="#DejaVuSans-48"/>
      </g>
     </g>
    </g>
    <g id="ytick_5">
     <g id="line2d_15">
      <g>
       <use style="stroke:#000000;stroke-width:0.8;" x="144" xlink:href="#mfca21e0bb3" y="557.52"/>
      </g>
     </g>
     <g id="text_16">
      <!-- −260000 -->
      <g transform="translate(90.445312 561.319219)scale(0.1 -0.1)">
       <use xlink:href="#DejaVuSans-8722"/>
       <use x="83.789062" xlink:href="#DejaVuSans-50"/>
       <use x="147.412109" xlink:href="#DejaVuSans-54"/>
       <use x="211.035156" xlink:href="#DejaVuSans-48"/>
       <use x="274.658203" xlink:href="#DejaVuSans-48"/>
       <use x="338.28125" xlink:href="#DejaVuSans-48"/>
       <use x="401.904297" xlink:href="#DejaVuSans-48"/>
      </g>
     </g>
    </g>
    <g id="ytick_6">
     <g id="line2d_16">
      <g>
       <use style="stroke:#000000;stroke-width:0.8;" x="144" xlink:href="#mfca21e0bb3" y="539.4"/>
      </g>
     </g>
     <g id="text_17">
      <!-- −250000 -->
      <defs>
       <path d="M 10.796875 72.90625 
L 49.515625 72.90625 
L 49.515625 64.59375 
L 19.828125 64.59375 
L 19.828125 46.734375 
Q 21.96875 47.46875 24.109375 47.828125 
Q 26.265625 48.1875 28.421875 48.1875 
Q 40.625 48.1875 47.75 41.5 
Q 54.890625 34.8125 54.890625 23.390625 
Q 54.890625 11.625 47.5625 5.09375 
Q 40.234375 -1.421875 26.90625 -1.421875 
Q 22.3125 -1.421875 17.546875 -0.640625 
Q 12.796875 0.140625 7.71875 1.703125 
L 7.71875 11.625 
Q 12.109375 9.234375 16.796875 8.0625 
Q 21.484375 6.890625 26.703125 6.890625 
Q 35.15625 6.890625 40.078125 11.328125 
Q 45.015625 15.765625 45.015625 23.390625 
Q 45.015625 31 40.078125 35.4375 
Q 35.15625 39.890625 26.703125 39.890625 
Q 22.75 39.890625 18.8125 39.015625 
Q 14.890625 38.140625 10.796875 36.28125 
z
" id="DejaVuSans-53"/>
      </defs>
      <g transform="translate(90.445312 543.199219)scale(0.1 -0.1)">
       <use xlink:href="#DejaVuSans-8722"/>
       <use x="83.789062" xlink:href="#DejaVuSans-50"/>
       <use x="147.412109" xlink:href="#DejaVuSans-53"/>
       <use x="211.035156" xlink:href="#DejaVuSans-48"/>
       <use x="274.658203" xlink:href="#DejaVuSans-48"/>
       <use x="338.28125" xlink:href="#DejaVuSans-48"/>
       <use x="401.904297" xlink:href="#DejaVuSans-48"/>
      </g>
     </g>
    </g>
    <g id="ytick_7">
     <g id="line2d_17">
      <g>
       <use style="stroke:#000000;stroke-width:0.8;" x="144" xlink:href="#mfca21e0bb3" y="521.28"/>
      </g>
     </g>
     <g id="text_18">
      <!-- −240000 -->
      <g transform="translate(90.445312 525.079219)scale(0.1 -0.1)">
       <use xlink:href="#DejaVuSans-8722"/>
       <use x="83.789062" xlink:href="#DejaVuSans-50"/>
       <use x="147.412109" xlink:href="#DejaVuSans-52"/>
       <use x="211.035156" xlink:href="#DejaVuSans-48"/>
       <use x="274.658203" xlink:href="#DejaVuSans-48"/>
       <use x="338.28125" xlink:href="#DejaVuSans-48"/>
       <use x="401.904297" xlink:href="#DejaVuSans-48"/>
      </g>
     </g>
    </g>
    <g id="ytick_8">
     <g id="line2d_18">
      <g>
       <use style="stroke:#000000;stroke-width:0.8;" x="144" xlink:href="#mfca21e0bb3" y="503.16"/>
      </g>
     </g>
     <g id="text_19">
      <!-- −230000 -->
      <g transform="translate(90.445312 506.959219)scale(0.1 -0.1)">
       <use xlink:href="#DejaVuSans-8722"/>
       <use x="83.789062" xlink:href="#DejaVuSans-50"/>
       <use x="147.412109" xlink:href="#DejaVuSans-51"/>
       <use x="211.035156" xlink:href="#DejaVuSans-48"/>
       <use x="274.658203" xlink:href="#DejaVuSans-48"/>
       <use x="338.28125" xlink:href="#DejaVuSans-48"/>
       <use x="401.904297" xlink:href="#DejaVuSans-48"/>
      </g>
     </g>
    </g>
    <g id="ytick_9">
     <g id="line2d_19">
      <g>
       <use style="stroke:#000000;stroke-width:0.8;" x="144" xlink:href="#mfca21e0bb3" y="485.04"/>
      </g>
     </g>
     <g id="text_20">
      <!-- −220000 -->
      <g transform="translate(90.445312 488.839219)scale(0.1 -0.1)">
       <use xlink:href="#DejaVuSans-8722"/>
       <use x="83.789062" xlink:href="#DejaVuSans-50"/>
       <use x="147.412109" xlink:href="#DejaVuSans-50"/>
       <use x="211.035156" xlink:href="#DejaVuSans-48"/>
       <use x="274.658203" xlink:href="#DejaVuSans-48"/>
       <use x="338.28125" xlink:href="#DejaVuSans-48"/>
       <use x="401.904297" xlink:href="#DejaVuSans-48"/>
      </g>
     </g>
    </g>
    <g id="ytick_10">
     <g id="line2d_20">
      <g>
       <use style="stroke:#000000;stroke-width:0.8;" x="144" xlink:href="#mfca21e0bb3" y="466.92"/>
      </g>
     </g>
     <g id="text_21">
      <!-- −210000 -->
      <g transform="translate(90.445312 470.719219)scale(0.1 -0.1)">
       <use xlink:href="#DejaVuSans-8722"/>
       <use x="83.789062" xlink:href="#DejaVuSans-50"/>
       <use x="147.412109" xlink:href="#DejaVuSans-49"/>
       <use x="211.035156" xlink:href="#DejaVuSans-48"/>
       <use x="274.658203" xlink:href="#DejaVuSans-48"/>
       <use x="338.28125" xlink:href="#DejaVuSans-48"/>
       <use x="401.904297" xlink:href="#DejaVuSans-48"/>
      </g>
     </g>
    </g>
    <g id="ytick_11">
     <g id="line2d_21">
      <g>
       <use style="stroke:#000000;stroke-width:0.8;" x="144" xlink:href="#mfca21e0bb3" y="448.8"/>
      </g>
     </g>
     <g id="text_22">
      <!-- −200000 -->
      <g transform="translate(90.445312 452.599219)scale(0.1 -0.1)">
       <use xlink:href="#DejaVuSans-8722"/>
       <use x="83.789062" xlink:href="#DejaVuSans-50"/>
       <use x="147.412109" xlink:href="#DejaVuSans-48"/>
       <use x="211.035156" xlink:href="#DejaVuSans-48"/>
       <use x="274.658203" xlink:href="#DejaVuSans-48"/>
       <use x="338.28125" xlink:href="#DejaVuSans-48"/>
       <use x="401.904297" xlink:href="#DejaVuSans-48"/>
      </g>
     </g>
    </g>
    <g id="ytick_12">
     <g id="line2d_22">
      <g>
       <use style="stroke:#000000;stroke-width:0.8;" x="144" xlink:href="#mfca21e0bb3" y="430.68"/>
      </g>
     </g>
     <g id="text_23">
      <!-- −190000 -->
      <g transform="translate(90.445312 434.479219)scale(0.1 -0.1)">
       <use xlink:href="#DejaVuSans-8722"/>
       <use x="83.789062" xlink:href="#DejaVuSans-49"/>
       <use x="147.412109" xlink:href="#DejaVuSans-57"/>
       <use x="211.035156" xlink:href="#DejaVuSans-48"/>
       <use x="274.658203" xlink:href="#DejaVuSans-48"/>
       <use x="338.28125" xlink:href="#DejaVuSans-48"/>
       <use x="401.904297" xlink:href="#DejaVuSans-48"/>
      </g>
     </g>
    </g>
    <g id="ytick_13">
     <g id="line2d_23">
      <g>
       <use style="stroke:#000000;stroke-width:0.8;" x="144" xlink:href="#mfca21e0bb3" y="412.56"/>
      </g>
     </g>
     <g id="text_24">
      <!-- −180000 -->
      <g transform="translate(90.445312 416.359219)scale(0.1 -0.1)">
       <use xlink:href="#DejaVuSans-8722"/>
       <use x="83.789062" xlink:href="#DejaVuSans-49"/>
       <use x="147.412109" xlink:href="#DejaVuSans-56"/>
       <use x="211.035156" xlink:href="#DejaVuSans-48"/>
       <use x="274.658203" xlink:href="#DejaVuSans-48"/>
       <use x="338.28125" xlink:href="#DejaVuSans-48"/>
       <use x="401.904297" xlink:href="#DejaVuSans-48"/>
      </g>
     </g>
    </g>
    <g id="ytick_14">
     <g id="line2d_24">
      <g>
       <use style="stroke:#000000;stroke-width:0.8;" x="144" xlink:href="#mfca21e0bb3" y="394.44"/>
      </g>
     </g>
     <g id="text_25">
      <!-- −170000 -->
      <g transform="translate(90.445312 398.239219)scale(0.1 -0.1)">
       <use xlink:href="#DejaVuSans-8722"/>
       <use x="83.789062" xlink:href="#DejaVuSans-49"/>
       <use x="147.412109" xlink:href="#DejaVuSans-55"/>
       <use x="211.035156" xlink:href="#DejaVuSans-48"/>
       <use x="274.658203" xlink:href="#DejaVuSans-48"/>
       <use x="338.28125" xlink:href="#DejaVuSans-48"/>
       <use x="401.904297" xlink:href="#DejaVuSans-48"/>
      </g>
     </g>
    </g>
    <g id="ytick_15">
     <g id="line2d_25">
      <g>
       <use style="stroke:#000000;stroke-width:0.8;" x="144" xlink:href="#mfca21e0bb3" y="376.32"/>
      </g>
     </g>
     <g id="text_26">
      <!-- −160000 -->
      <g transform="translate(90.445312 380.119219)scale(0.1 -0.1)">
       <use xlink:href="#DejaVuSans-8722"/>
       <use x="83.789062" xlink:href="#DejaVuSans-49"/>
       <use x="147.412109" xlink:href="#DejaVuSans-54"/>
       <use x="211.035156" xlink:href="#DejaVuSans-48"/>
       <use x="274.658203" xlink:href="#DejaVuSans-48"/>
       <use x="338.28125" xlink:href="#DejaVuSans-48"/>
       <use x="401.904297" xlink:href="#DejaVuSans-48"/>
      </g>
     </g>
    </g>
    <g id="ytick_16">
     <g id="line2d_26">
      <g>
       <use style="stroke:#000000;stroke-width:0.8;" x="144" xlink:href="#mfca21e0bb3" y="358.2"/>
      </g>
     </g>
     <g id="text_27">
      <!-- −150000 -->
      <g transform="translate(90.445312 361.999219)scale(0.1 -0.1)">
       <use xlink:href="#DejaVuSans-8722"/>
       <use x="83.789062" xlink:href="#DejaVuSans-49"/>
       <use x="147.412109" xlink:href="#DejaVuSans-53"/>
       <use x="211.035156" xlink:href="#DejaVuSans-48"/>
       <use x="274.658203" xlink:href="#DejaVuSans-48"/>
       <use x="338.28125" xlink:href="#DejaVuSans-48"/>
       <use x="401.904297" xlink:href="#DejaVuSans-48"/>
      </g>
     </g>
    </g>
    <g id="ytick_17">
     <g id="line2d_27">
      <g>
       <use style="stroke:#000000;stroke-width:0.8;" x="144" xlink:href="#mfca21e0bb3" y="340.08"/>
      </g>
     </g>
     <g id="text_28">
      <!-- −140000 -->
      <g transform="translate(90.445312 343.879219)scale(0.1 -0.1)">
       <use xlink:href="#DejaVuSans-8722"/>
       <use x="83.789062" xlink:href="#DejaVuSans-49"/>
       <use x="147.412109" xlink:href="#DejaVuSans-52"/>
       <use x="211.035156" xlink:href="#DejaVuSans-48"/>
       <use x="274.658203" xlink:href="#DejaVuSans-48"/>
       <use x="338.28125" xlink:href="#DejaVuSans-48"/>
       <use x="401.904297" xlink:href="#DejaVuSans-48"/>
      </g>
     </g>
    </g>
    <g id="ytick_18">
     <g id="line2d_28">
      <g>
       <use style="stroke:#000000;stroke-width:0.8;" x="144" xlink:href="#mfca21e0bb3" y="321.96"/>
      </g>
     </g>
     <g id="text_29">
      <!-- −130000 -->
      <g transform="translate(90.445312 325.759219)scale(0.1 -0.1)">
       <use xlink:href="#DejaVuSans-8722"/>
       <use x="83.789062" xlink:href="#DejaVuSans-49"/>
       <use x="147.412109" xlink:href="#DejaVuSans-51"/>
       <use x="211.035156" xlink:href="#DejaVuSans-48"/>
       <use x="274.658203" xlink:href="#DejaVuSans-48"/>
       <use x="338.28125" xlink:href="#DejaVuSans-48"/>
       <use x="401.904297" xlink:href="#DejaVuSans-48"/>
      </g>
     </g>
    </g>
    <g id="ytick_19">
     <g id="line2d_29">
      <g>
       <use style="stroke:#000000;stroke-width:0.8;" x="144" xlink:href="#mfca21e0bb3" y="303.84"/>
      </g>
     </g>
     <g id="text_30">
      <!-- −120000 -->
      <g transform="translate(90.445312 307.639219)scale(0.1 -0.1)">
       <use xlink:href="#DejaVuSans-8722"/>
       <use x="83.789062" xlink:href="#DejaVuSans-49"/>
       <use x="147.412109" xlink:href="#DejaVuSans-50"/>
       <use x="211.035156" xlink:href="#DejaVuSans-48"/>
       <use x="274.658203" xlink:href="#DejaVuSans-48"/>
       <use x="338.28125" xlink:href="#DejaVuSans-48"/>
       <use x="401.904297" xlink:href="#DejaVuSans-48"/>
      </g>
     </g>
    </g>
    <g id="ytick_20">
     <g id="line2d_30">
      <g>
       <use style="stroke:#000000;stroke-width:0.8;" x="144" xlink:href="#mfca21e0bb3" y="285.72"/>
      </g>
     </g>
     <g id="text_31">
      <!-- −110000 -->
      <g transform="translate(90.445312 289.519219)scale(0.1 -0.1)">
       <use xlink:href="#DejaVuSans-8722"/>
       <use x="83.789062" xlink:href="#DejaVuSans-49"/>
       <use x="147.412109" xlink:href="#DejaVuSans-49"/>
       <use x="211.035156" xlink:href="#DejaVuSans-48"/>
       <use x="274.658203" xlink:href="#DejaVuSans-48"/>
       <use x="338.28125" xlink:href="#DejaVuSans-48"/>
       <use x="401.904297" xlink:href="#DejaVuSans-48"/>
      </g>
     </g>
    </g>
    <g id="ytick_21">
     <g id="line2d_31">
      <g>
       <use style="stroke:#000000;stroke-width:0.8;" x="144" xlink:href="#mfca21e0bb3" y="267.6"/>
      </g>
     </g>
     <g id="text_32">
      <!-- −100000 -->
      <g transform="translate(90.445312 271.399219)scale(0.1 -0.1)">
       <use xlink:href="#DejaVuSans-8722"/>
       <use x="83.789062" xlink:href="#DejaVuSans-49"/>
       <use x="147.412109" xlink:href="#DejaVuSans-48"/>
       <use x="211.035156" xlink:href="#DejaVuSans-48"/>
       <use x="274.658203" xlink:href="#DejaVuSans-48"/>
       <use x="338.28125" xlink:href="#DejaVuSans-48"/>
       <use x="401.904297" xlink:href="#DejaVuSans-48"/>
      </g>
     </g>
    </g>
    <g id="ytick_22">
     <g id="line2d_32">
      <g>
       <use style="stroke:#000000;stroke-width:0.8;" x="144" xlink:href="#mfca21e0bb3" y="249.48"/>
      </g>
     </g>
     <g id="text_33">
      <!-- −90000 -->
      <g transform="translate(96.807812 253.279219)scale(0.1 -0.1)">
       <use xlink:href="#DejaVuSans-8722"/>
       <use x="83.789062" xlink:href="#DejaVuSans-57"/>
       <use x="147.412109" xlink:href="#DejaVuSans-48"/>
       <use x="211.035156" xlink:href="#DejaVuSans-48"/>
       <use x="274.658203" xlink:href="#DejaVuSans-48"/>
       <use x="338.28125" xlink:href="#DejaVuSans-48"/>
      </g>
     </g>
    </g>
    <g id="ytick_23">
     <g id="line2d_33">
      <g>
       <use style="stroke:#000000;stroke-width:0.8;" x="144" xlink:href="#mfca21e0bb3" y="231.36"/>
      </g>
     </g>
     <g id="text_34">
      <!-- −80000 -->
      <g transform="translate(96.807812 235.159219)scale(0.1 -0.1)">
       <use xlink:href="#DejaVuSans-8722"/>
       <use x="83.789062" xlink:href="#DejaVuSans-56"/>
       <use x="147.412109" xlink:href="#DejaVuSans-48"/>
       <use x="211.035156" xlink:href="#DejaVuSans-48"/>
       <use x="274.658203" xlink:href="#DejaVuSans-48"/>
       <use x="338.28125" xlink:href="#DejaVuSans-48"/>
      </g>
     </g>
    </g>
    <g id="ytick_24">
     <g id="line2d_34">
      <g>
       <use style="stroke:#000000;stroke-width:0.8;" x="144" xlink:href="#mfca21e0bb3" y="213.24"/>
      </g>
     </g>
     <g id="text_35">
      <!-- −70000 -->
      <g transform="translate(96.807812 217.039219)scale(0.1 -0.1)">
       <use xlink:href="#DejaVuSans-8722"/>
       <use x="83.789062" xlink:href="#DejaVuSans-55"/>
       <use x="147.412109" xlink:href="#DejaVuSans-48"/>
       <use x="211.035156" xlink:href="#DejaVuSans-48"/>
       <use x="274.658203" xlink:href="#DejaVuSans-48"/>
       <use x="338.28125" xlink:href="#DejaVuSans-48"/>
      </g>
     </g>
    </g>
    <g id="ytick_25">
     <g id="line2d_35">
      <g>
       <use style="stroke:#000000;stroke-width:0.8;" x="144" xlink:href="#mfca21e0bb3" y="195.12"/>
      </g>
     </g>
     <g id="text_36">
      <!-- −60000 -->
      <g transform="translate(96.807812 198.919219)scale(0.1 -0.1)">
       <use xlink:href="#DejaVuSans-8722"/>
       <use x="83.789062" xlink:href="#DejaVuSans-54"/>
       <use x="147.412109" xlink:href="#DejaVuSans-48"/>
       <use x="211.035156" xlink:href="#DejaVuSans-48"/>
       <use x="274.658203" xlink:href="#DejaVuSans-48"/>
       <use x="338.28125" xlink:href="#DejaVuSans-48"/>
      </g>
     </g>
    </g>
    <g id="ytick_26">
     <g id="line2d_36">
      <g>
       <use style="stroke:#000000;stroke-width:0.8;" x="144" xlink:href="#mfca21e0bb3" y="177"/>
      </g>
     </g>
     <g id="text_37">
      <!-- −50000 -->
      <g transform="translate(96.807812 180.799219)scale(0.1 -0.1)">
       <use xlink:href="#DejaVuSans-8722"/>
       <use x="83.789062" xlink:href="#DejaVuSans-53"/>
       <use x="147.412109" xlink:href="#DejaVuSans-48"/>
       <use x="211.035156" xlink:href="#DejaVuSans-48"/>
       <use x="274.658203" xlink:href="#DejaVuSans-48"/>
       <use x="338.28125" xlink:href="#DejaVuSans-48"/>
      </g>
     </g>
    </g>
    <g id="ytick_27">
     <g id="line2d_37">
      <g>
       <use style="stroke:#000000;stroke-width:0.8;" x="144" xlink:href="#mfca21e0bb3" y="158.88"/>
      </g>
     </g>
     <g id="text_38">
      <!-- −40000 -->
      <g transform="translate(96.807812 162.679219)scale(0.1 -0.1)">
       <use xlink:href="#DejaVuSans-8722"/>
       <use x="83.789062" xlink:href="#DejaVuSans-52"/>
       <use x="147.412109" xlink:href="#DejaVuSans-48"/>
       <use x="211.035156" xlink:href="#DejaVuSans-48"/>
       <use x="274.658203" xlink:href="#DejaVuSans-48"/>
       <use x="338.28125" xlink:href="#DejaVuSans-48"/>
      </g>
     </g>
    </g>
    <g id="ytick_28">
     <g id="line2d_38">
      <g>
       <use style="stroke:#000000;stroke-width:0.8;" x="144" xlink:href="#mfca21e0bb3" y="140.76"/>
      </g>
     </g>
     <g id="text_39">
      <!-- −30000 -->
      <g transform="translate(96.807812 144.559219)scale(0.1 -0.1)">
       <use xlink:href="#DejaVuSans-8722"/>
       <use x="83.789062" xlink:href="#DejaVuSans-51"/>
       <use x="147.412109" xlink:href="#DejaVuSans-48"/>
       <use x="211.035156" xlink:href="#DejaVuSans-48"/>
       <use x="274.658203" xlink:href="#DejaVuSans-48"/>
       <use x="338.28125" xlink:href="#DejaVuSans-48"/>
      </g>
     </g>
    </g>
    <g id="ytick_29">
     <g id="line2d_39">
      <g>
       <use style="stroke:#000000;stroke-width:0.8;" x="144" xlink:href="#mfca21e0bb3" y="122.64"/>
      </g>
     </g>
     <g id="text_40">
      <!-- −20000 -->
      <g transform="translate(96.807812 126.439219)scale(0.1 -0.1)">
       <use xlink:href="#DejaVuSans-8722"/>
       <use x="83.789062" xlink:href="#DejaVuSans-50"/>
       <use x="147.412109" xlink:href="#DejaVuSans-48"/>
       <use x="211.035156" xlink:href="#DejaVuSans-48"/>
       <use x="274.658203" xlink:href="#DejaVuSans-48"/>
       <use x="338.28125" xlink:href="#DejaVuSans-48"/>
      </g>
     </g>
    </g>
    <g id="ytick_30">
     <g id="line2d_40">
      <g>
       <use style="stroke:#000000;stroke-width:0.8;" x="144" xlink:href="#mfca21e0bb3" y="104.52"/>
      </g>
     </g>
     <g id="text_41">
      <!-- −10000 -->
      <g transform="translate(96.807812 108.319219)scale(0.1 -0.1)">
       <use xlink:href="#DejaVuSans-8722"/>
       <use x="83.789062" xlink:href="#DejaVuSans-49"/>
       <use x="147.412109" xlink:href="#DejaVuSans-48"/>
       <use x="211.035156" xlink:href="#DejaVuSans-48"/>
       <use x="274.658203" xlink:href="#DejaVuSans-48"/>
       <use x="338.28125" xlink:href="#DejaVuSans-48"/>
      </g>
     </g>
    </g>
    <g id="ytick_31">
     <g id="line2d_41">
      <g>
       <use style="stroke:#000000;stroke-width:0.8;" x="144" xlink:href="#mfca21e0bb3" y="86.4"/>
      </g>
     </g>
     <g id="text_42">
      <!-- 0 -->
      <g transform="translate(130.6375 90.199219)scale(0.1 -0.1)">
       <use xlink:href="#DejaVuSans-48"/>
      </g>
     </g>
    </g>
    <g id="text_43">
     <!-- cumulative reward -->
     <defs>
      <path d="M 8.5 21.578125 
L 8.5 54.6875 
L 17.484375 54.6875 
L 17.484375 21.921875 
Q 17.484375 14.15625 20.5 10.265625 
Q 23.53125 6.390625 29.59375 6.390625 
Q 36.859375 6.390625 41.078125 11.03125 
Q 45.3125 15.671875 45.3125 23.6875 
L 45.3125 54.6875 
L 54.296875 54.6875 
L 54.296875 0 
L 45.3125 0 
L 45.3125 8.40625 
Q 42.046875 3.421875 37.71875 1 
Q 33.40625 -1.421875 27.6875 -1.421875 
Q 18.265625 -1.421875 13.375 4.4375 
Q 8.5 10.296875 8.5 21.578125 
z
M 31.109375 56 
z
" id="DejaVuSans-117"/>
      <path d="M 2.984375 54.6875 
L 12.5 54.6875 
L 29.59375 8.796875 
L 46.6875 54.6875 
L 56.203125 54.6875 
L 35.6875 0 
L 23.484375 0 
z
" id="DejaVuSans-118"/>
      <path d="M 41.109375 46.296875 
Q 39.59375 47.171875 37.8125 47.578125 
Q 36.03125 48 33.890625 48 
Q 26.265625 48 22.1875 43.046875 
Q 18.109375 38.09375 18.109375 28.8125 
L 18.109375 0 
L 9.078125 0 
L 9.078125 54.6875 
L 18.109375 54.6875 
L 18.109375 46.1875 
Q 20.953125 51.171875 25.484375 53.578125 
Q 30.03125 56 36.53125 56 
Q 37.453125 56 38.578125 55.875 
Q 39.703125 55.765625 41.0625 55.515625 
z
" id="DejaVuSans-114"/>
     </defs>
     <g transform="translate(84.365625 404.899219)rotate(-90)scale(0.1 -0.1)">
      <use xlink:href="#DejaVuSans-99"/>
      <use x="54.980469" xlink:href="#DejaVuSans-117"/>
      <use x="118.359375" xlink:href="#DejaVuSans-109"/>
      <use x="215.771484" xlink:href="#DejaVuSans-117"/>
      <use x="279.150391" xlink:href="#DejaVuSans-108"/>
      <use x="306.933594" xlink:href="#DejaVuSans-97"/>
      <use x="368.212891" xlink:href="#DejaVuSans-116"/>
      <use x="407.421875" xlink:href="#DejaVuSans-105"/>
      <use x="435.205078" xlink:href="#DejaVuSans-118"/>
      <use x="494.384766" xlink:href="#DejaVuSans-101"/>
      <use x="555.908203" xlink:href="#DejaVuSans-32"/>
      <use x="587.695312" xlink:href="#DejaVuSans-114"/>
      <use x="626.558594" xlink:href="#DejaVuSans-101"/>
      <use x="688.082031" xlink:href="#DejaVuSans-119"/>
      <use x="769.869141" xlink:href="#DejaVuSans-97"/>
      <use x="831.148438" xlink:href="#DejaVuSans-114"/>
      <use x="870.511719" xlink:href="#DejaVuSans-100"/>
     </g>
    </g>
   </g>
   <g id="line2d_42">
    <path clip-path="url(#pcb117074ef)" d="M 153.928745 475.524028 
L 210.284767 475.524028 
L 210.568705 467.761783 
L 210.846964 453.886556 
L 211.125224 457.799679 
L 211.403483 448.586401 
L 211.687421 455.102064 
L 211.96568 453.031346 
L 212.522199 451.152991 
L 212.800458 443.303679 
L 213.356977 409.09551 
L 213.635236 407.487469 
L 213.913495 404.711086 
L 214.191754 403.848919 
L 214.470014 409.231229 
L 214.748273 400.472148 
L 215.026532 399.178543 
L 215.299113 395.121819 
L 215.583051 385.285704 
L 215.86131 384.478186 
L 216.133891 377.261787 
L 217.241249 383.828928 
L 217.519508 379.029212 
L 217.797767 378.791568 
L 218.076027 378.378704 
L 218.348607 383.242003 
L 218.905126 373.894692 
L 219.183385 370.707837 
L 219.734225 367.745091 
L 220.012484 365.393006 
L 220.290743 359.297547 
L 220.563324 349.657145 
L 220.841583 350.717165 
L 221.119842 353.142871 
L 221.398102 349.04458 
L 221.676361 347.44067 
L 221.948942 340.200099 
L 222.227201 344.260284 
L 222.50546 334.043376 
L 222.778041 334.747157 
L 223.0563 336.418111 
L 223.32888 331.187266 
L 223.60714 335.937768 
L 223.87972 332.522529 
L 224.157979 333.76489 
L 224.436239 331.147221 
L 224.987079 332.941227 
L 225.259659 321.928399 
L 225.53224 325.693789 
L 225.816178 323.961571 
L 226.094437 328.212976 
L 226.367017 321.633151 
L 226.917857 321.267979 
L 227.196116 319.185882 
L 227.468697 321.027998 
L 227.746956 321.259771 
L 228.019537 319.874769 
L 228.842957 312.912612 
L 229.393797 302.844234 
L 229.672056 301.343571 
L 229.944637 301.554434 
L 230.217217 298.514913 
L 230.489798 298.519896 
L 230.768057 298.866169 
L 231.046316 291.876487 
L 231.597156 294.352477 
L 231.869737 292.944263 
L 232.147996 290.380392 
L 232.426255 292.577115 
L 232.698836 290.354063 
L 232.977095 294.141651 
L 233.249675 295.640863 
L 233.522256 292.905486 
L 234.073096 291.759722 
L 234.618257 286.279836 
L 234.890837 288.316415 
L 235.169097 288.116642 
L 235.464392 287.028264 
L 235.74833 287.727569 
L 236.026589 289.132449 
L 236.29917 285.985005 
L 236.85001 288.329334 
L 237.12259 283.297682 
L 237.395171 281.455965 
L 237.667751 283.433528 
L 237.946011 282.408443 
L 238.218591 282.067461 
L 238.491172 283.732 
L 239.042011 278.721259 
L 239.314592 277.215704 
L 239.587172 270.229593 
L 239.865432 275.35603 
L 240.138012 273.909656 
L 240.410593 273.604225 
L 240.683173 276.193011 
L 241.239692 272.5963 
L 241.512272 274.143132 
L 241.784853 271.564475 
L 242.063112 270.288609 
L 242.335693 267.797617 
L 242.608273 267.640317 
L 243.153434 269.319063 
L 243.976854 266.738775 
L 244.249435 263.760825 
L 244.522016 264.400968 
L 244.794596 267.002493 
L 245.067177 264.08193 
L 245.339757 267.820665 
L 245.612338 267.563977 
L 245.890597 265.549994 
L 246.163177 266.690883 
L 246.714017 265.160812 
L 246.986598 267.770491 
L 247.259178 268.232605 
L 247.537437 266.577905 
L 247.810018 266.972595 
L 248.355179 265.809961 
L 248.62776 266.624691 
L 248.90034 264.032389 
L 249.172921 262.547401 
L 249.45118 262.28274 
L 249.72376 260.713258 
L 249.990662 262.498423 
L 250.263243 263.038453 
L 250.535823 261.562797 
L 250.808404 261.607825 
L 251.080984 261.106009 
L 251.359243 261.686755 
L 251.904404 257.438467 
L 252.176985 256.122901 
L 252.449566 260.69175 
L 252.727825 256.30314 
L 253.272986 257.301661 
L 253.545566 255.710435 
L 253.818147 257.175165 
L 254.096406 254.691928 
L 254.363308 253.828347 
L 254.635888 254.515548 
L 254.908469 252.120863 
L 255.45363 253.28616 
L 255.72621 250.610235 
L 255.998791 250.345103 
L 256.271371 253.6075 
L 256.549631 248.428406 
L 256.822211 247.823035 
L 257.089113 248.432265 
L 257.361694 246.799255 
L 257.634274 246.985999 
L 257.906855 246.573606 
L 258.179435 248.595907 
L 258.452016 245.682157 
L 258.724596 246.669407 
L 258.991498 246.788491 
L 259.264078 250.966003 
L 259.536659 246.735092 
L 259.809239 248.867417 
L 260.08182 245.828131 
L 260.3544 247.688711 
L 260.626981 246.751182 
L 260.893883 247.931356 
L 261.166463 245.155716 
L 261.439044 245.631131 
L 261.717303 246.821506 
L 261.989884 243.559671 
L 262.535045 243.433737 
L 262.801946 246.062278 
L 263.074527 245.678931 
L 263.347107 248.246862 
L 263.619688 244.677167 
L 263.892268 242.718069 
L 264.164849 244.440375 
L 264.437429 244.207297 
L 264.71001 242.232725 
L 264.98259 242.409286 
L 265.255171 243.132564 
L 265.527752 241.728481 
L 265.800332 244.733792 
L 266.072913 242.925018 
L 266.345493 243.451023 
L 266.896333 242.686468 
L 267.168913 242.628194 
L 267.435815 239.727816 
L 267.708396 242.16954 
L 268.253557 241.632554 
L 268.526137 241.034196 
L 268.798718 241.001706 
L 269.071298 239.263147 
L 269.61078 239.727417 
L 269.883361 243.130353 
L 270.155942 240.637549 
L 270.428522 240.383361 
L 270.701103 241.125828 
L 270.973683 241.447857 
L 271.246264 244.172308 
L 271.518844 240.335506 
L 271.791425 242.980809 
L 272.064005 243.157986 
L 272.336586 241.402557 
L 272.881747 245.527339 
L 273.154327 242.242292 
L 273.426908 240.349441 
L 273.699488 244.902199 
L 273.972069 243.355766 
L 274.244649 243.6018 
L 274.51723 243.108319 
L 274.78981 242.025939 
L 275.062391 243.180057 
L 275.334971 241.256691 
L 275.601873 240.359805 
L 275.880132 238.384888 
L 276.147034 239.122771 
L 276.692195 237.667391 
L 276.970454 237.495305 
L 277.237356 235.401829 
L 277.509937 236.421695 
L 278.055098 232.894927 
L 278.327678 235.055628 
L 278.600259 235.247972 
L 278.867161 236.344287 
L 279.139741 233.743505 
L 279.412322 233.317014 
L 279.684902 232.016669 
L 280.224384 233.92244 
L 280.496965 233.54346 
L 280.769545 234.318253 
L 281.036447 231.850309 
L 281.309028 232.037108 
L 281.581608 233.377426 
L 281.84851 231.40019 
L 282.126769 230.912037 
L 282.39935 227.700032 
L 282.67193 232.238077 
L 282.938832 232.181162 
L 283.211412 231.853136 
L 283.756574 232.045661 
L 284.029154 230.248501 
L 284.301735 232.35506 
L 284.574315 231.22834 
L 284.846896 231.402582 
L 285.113797 232.013679 
L 285.386378 229.288141 
L 286.204119 230.516333 
L 286.471021 228.675123 
L 286.743602 229.785825 
L 287.016182 229.013967 
L 287.294441 228.907839 
L 287.567022 228.455817 
L 287.839602 226.704338 
L 288.106504 226.463577 
L 288.379085 226.890521 
L 288.651665 228.990411 
L 288.924246 228.37087 
L 289.191148 224.547152 
L 289.463728 226.135605 
L 289.736309 224.490418 
L 290.28147 225.230113 
L 290.820952 222.688094 
L 291.093532 222.884986 
L 291.360434 223.326607 
L 291.633015 222.319189 
L 291.905595 222.726146 
L 292.178176 222.276372 
L 292.450756 222.950508 
L 292.995917 220.61455 
L 293.262819 221.994442 
L 293.541078 221.23063 
L 293.80798 221.339749 
L 294.080561 220.536072 
L 294.353141 218.491339 
L 294.625722 217.803522 
L 294.898302 218.470664 
L 295.165204 218.803619 
L 295.437784 217.02679 
L 295.977267 220.124694 
L 296.249847 216.942188 
L 296.795008 217.951979 
L 297.06191 217.660084 
L 297.340169 217.871689 
L 297.879651 217.762227 
L 298.152232 218.026452 
L 298.419134 217.723504 
L 298.691714 215.409127 
L 298.964295 216.330076 
L 299.236875 218.848647 
L 299.509456 215.226786 
L 299.776358 217.591681 
L 300.048938 217.487944 
L 300.321519 216.377859 
L 300.594099 217.523785 
L 300.86668 217.688388 
L 301.13926 217.64615 
L 301.406162 216.608327 
L 301.678742 218.603901 
L 301.951323 217.620383 
L 302.223903 218.239525 
L 302.496484 218.238909 
L 302.769064 218.751524 
L 303.041645 218.915401 
L 303.314226 216.837037 
L 303.859387 218.992411 
L 304.131967 217.633411 
L 304.404548 217.687427 
L 305.21661 215.593208 
L 305.489191 217.027189 
L 305.761771 215.625208 
L 306.301254 214.48575 
L 306.573834 211.812923 
L 306.840736 212.946329 
L 307.113316 213.156123 
L 307.380218 212.977532 
L 307.664156 211.786486 
L 307.936737 211.898268 
L 308.203639 210.708002 
L 308.476219 211.748488 
L 309.015701 211.301776 
L 309.282603 210.199627 
L 309.555184 210.003188 
L 309.822085 209.251661 
L 310.094666 209.58882 
L 310.361568 210.64951 
L 310.634148 209.709318 
L 310.906729 210.610263 
L 311.17363 209.29051 
L 311.446211 211.178723 
L 312.258274 211.988125 
L 312.530854 210.019677 
L 312.814792 211.038529 
L 313.388347 210.205281 
L 313.666606 211.500861 
L 313.944866 211.888248 
L 314.217446 212.567911 
L 314.773965 209.383375 
L 315.052224 210.497919 
L 315.324805 210.232696 
L 315.603064 210.963947 
L 315.881323 210.823354 
L 316.153904 210.370571 
L 316.437842 208.131972 
L 316.710422 210.357271 
L 316.988681 209.364458 
L 317.261262 207.850659 
L 317.533842 210.051895 
L 317.812102 208.838253 
L 318.090361 208.808808 
L 318.362942 208.516678 
L 318.641201 208.593905 
L 319.192041 208.956432 
L 319.464621 208.98026 
L 319.737202 209.543792 
L 320.015461 208.388587 
L 320.288041 208.026079 
L 320.560622 207.861404 
L 320.838881 206.855925 
L 321.384042 206.245608 
L 321.662302 207.087064 
L 321.934882 205.958804 
L 322.207463 205.53746 
L 322.485722 204.558527 
L 323.036562 206.137232 
L 323.314821 206.592044 
L 323.587401 205.625904 
L 323.877018 205.583448 
L 324.177993 205.400255 
L 324.461931 204.269567 
L 324.74019 205.101511 
L 325.029807 204.427791 
L 325.597683 205.307517 
L 325.875942 204.184856 
L 326.426782 204.730957 
L 326.699362 204.817643 
L 326.971943 205.118833 
L 327.53414 204.166573 
L 327.806721 204.861475 
L 328.096337 203.702466 
L 328.374597 203.659503 
L 328.936794 202.642899 
L 329.521706 202.516348 
L 329.822681 202.491035 
L 330.112297 201.899018 
L 330.401914 202.740982 
L 330.691531 202.347778 
L 330.981148 201.286164 
L 331.276443 201.867435 
L 331.56606 202.056553 
L 331.855677 201.664491 
L 332.145294 202.656942 
L 332.440589 201.625008 
L 332.730206 203.551399 
L 333.019823 202.696081 
L 333.315119 202.918323 
L 334.183969 201.562675 
L 334.479265 201.40407 
L 334.768881 201.116578 
L 335.058498 202.372005 
L 335.348115 202.036458 
L 335.637732 202.261654 
L 335.933027 202.67325 
L 336.234002 201.608826 
L 336.540655 202.182433 
L 336.841629 200.622192 
L 337.136925 201.897097 
L 337.426541 202.238949 
L 337.716158 200.486908 
L 338.011454 201.675127 
L 338.602045 200.622066 
L 338.89734 201.458648 
L 339.181278 200.464204 
L 339.470895 201.159668 
L 340.04445 200.972361 
L 340.334067 200.303045 
L 340.623684 200.999251 
L 340.907622 200.224911 
L 342.037695 199.028357 
L 342.315954 199.415962 
L 342.594214 198.792344 
L 342.861115 199.274119 
L 343.139375 198.439801 
L 343.428991 198.132957 
L 343.701572 198.731244 
L 343.979831 197.65776 
L 344.252412 197.479677 
L 344.530671 197.481145 
L 344.80893 197.348416 
L 345.081511 197.760138 
L 345.354091 197.065635 
L 345.638029 197.277403 
L 345.916289 197.665008 
L 346.200227 197.136973 
L 346.478486 197.146142 
L 347.052041 195.957072 
L 347.370051 196.306117 
L 347.671026 196.162516 
L 347.972 196.78222 
L 348.272974 196.104641 
L 349.16454 196.036872 
L 349.442799 196.264278 
L 349.738095 196.895307 
L 350.010675 196.092645 
L 350.288934 195.63189 
L 350.572872 196.015182 
L 350.845453 196.79677 
L 351.40765 196.218688 
L 351.68591 196.073565 
L 351.95849 195.437317 
L 352.231071 196.523611 
L 352.503651 196.431199 
L 352.503651 196.431199 
" style="fill:none;stroke:#1f77b4;stroke-linecap:square;stroke-width:1.5;"/>
   </g>
   <g id="line2d_43">
    <path clip-path="url(#pcb117074ef)" d="M 153.928745 475.524028 
L 210.284767 475.524028 
L 210.568705 469.330975 
L 210.846964 455.243581 
L 211.125224 459.843451 
L 211.403483 449.622304 
L 211.687421 455.799756 
L 211.96568 464.719543 
L 212.800458 459.891469 
L 213.078717 431.881682 
L 213.356977 415.159767 
L 213.635236 409.468728 
L 213.913495 409.244602 
L 214.191754 404.34325 
L 214.470014 415.699616 
L 214.748273 404.377678 
L 215.026532 399.209293 
L 215.299113 398.42062 
L 215.583051 386.09641 
L 215.86131 389.274205 
L 216.133891 377.483177 
L 216.690409 380.187823 
L 217.241249 387.15123 
L 217.519508 380.758041 
L 217.797767 384.178644 
L 218.076027 380.16144 
L 218.348607 383.628466 
L 218.626866 381.37548 
L 219.183385 370.928267 
L 219.734225 368.967357 
L 220.012484 371.79 
L 220.563324 351.367274 
L 220.841583 353.281996 
L 221.119842 354.368743 
L 221.398102 353.858557 
L 221.676361 347.580991 
L 221.948942 344.30977 
L 222.227201 347.529694 
L 222.50546 337.714996 
L 222.778041 335.567776 
L 223.0563 337.338317 
L 223.32888 334.087372 
L 223.60714 337.912051 
L 223.87972 333.178418 
L 224.157979 336.267316 
L 224.436239 333.26755 
L 224.708819 333.019542 
L 224.987079 336.978309 
L 225.259659 323.826233 
L 225.53224 325.7652 
L 225.816178 324.054672 
L 226.094437 329.123851 
L 226.367017 323.856258 
L 226.917857 324.756695 
L 227.196116 321.845047 
L 227.468697 323.420236 
L 227.746956 323.246629 
L 228.019537 322.712542 
L 228.292117 321.160455 
L 228.842957 314.859551 
L 229.393797 305.481672 
L 229.672056 303.26083 
L 229.944637 302.326183 
L 230.217217 300.878503 
L 230.489798 300.540348 
L 230.768057 299.640001 
L 231.046316 292.834365 
L 231.324576 298.761979 
L 231.597156 295.275799 
L 231.869737 294.504793 
L 232.147996 291.429485 
L 232.426255 293.929266 
L 232.698836 290.469361 
L 233.249675 298.234687 
L 233.522256 295.941601 
L 234.073096 294.834124 
L 234.618257 288.084533 
L 235.169097 290.194734 
L 235.464392 288.446027 
L 235.74833 287.832103 
L 236.026589 291.697335 
L 236.29917 286.862339 
L 236.85001 288.611263 
L 237.395171 282.040843 
L 237.667751 283.827583 
L 237.946011 283.693387 
L 238.218591 283.03699 
L 238.491172 284.763934 
L 238.763752 283.34956 
L 239.042011 279.734964 
L 239.314592 277.860323 
L 239.587172 272.272459 
L 239.865432 275.501443 
L 240.138012 275.049694 
L 240.410593 276.205188 
L 240.683173 278.572892 
L 241.239692 272.750936 
L 241.512272 275.619115 
L 241.784853 272.098054 
L 242.063112 271.608361 
L 242.608273 267.957417 
L 242.880854 268.90531 
L 243.153434 270.887294 
L 243.431693 269.055706 
L 243.704274 269.080277 
L 243.976854 268.480396 
L 244.249435 263.839067 
L 244.522016 266.11416 
L 244.794596 267.303049 
L 245.067177 264.33715 
L 245.339757 270.041326 
L 245.612338 268.80893 
L 245.890597 269.00883 
L 246.163177 266.846425 
L 246.441437 267.522301 
L 246.714017 265.627058 
L 246.986598 268.0129 
L 247.259178 268.617311 
L 247.810018 267.685617 
L 248.355179 267.392979 
L 248.62776 268.719363 
L 248.90034 267.175992 
L 249.172921 264.683695 
L 249.45118 264.875984 
L 249.72376 261.264215 
L 249.990662 263.879058 
L 250.263243 263.511675 
L 250.535823 264.008616 
L 250.808404 261.653686 
L 251.080984 263.08426 
L 251.359243 262.855151 
L 251.631824 261.719607 
L 252.176985 257.206368 
L 252.449566 261.749614 
L 252.727825 257.327989 
L 253.000405 258.358347 
L 253.272986 261.147468 
L 253.545566 257.174984 
L 253.818147 260.217568 
L 254.096406 255.773982 
L 254.363308 255.93592 
L 254.635888 255.468986 
L 254.908469 252.474783 
L 255.45363 254.224269 
L 255.72621 250.785546 
L 255.998791 251.334908 
L 256.271371 255.468877 
L 256.549631 249.649422 
L 256.822211 248.644215 
L 257.089113 249.83276 
L 257.361694 249.905367 
L 257.634274 247.923945 
L 257.906855 246.798457 
L 258.179435 250.94714 
L 258.724596 247.821114 
L 258.991498 247.437876 
L 259.264078 251.414763 
L 259.536659 246.767889 
L 259.809239 250.795621 
L 260.08182 247.404463 
L 260.3544 247.727107 
L 260.626981 247.723828 
L 260.893883 249.024735 
L 261.166463 245.782161 
L 261.439044 247.471162 
L 261.717303 248.239559 
L 261.989884 243.659729 
L 262.535045 244.304348 
L 262.801946 246.910693 
L 263.074527 246.282726 
L 263.347107 249.938092 
L 263.892268 243.703453 
L 264.164849 245.933336 
L 264.437429 245.485446 
L 264.71001 243.64603 
L 264.98259 245.473215 
L 265.255171 243.746596 
L 265.527752 242.788048 
L 265.800332 245.008763 
L 266.072913 245.24387 
L 266.345493 245.884412 
L 266.896333 242.919527 
L 267.168913 243.988951 
L 267.435815 241.690085 
L 267.708396 242.54457 
L 267.980976 242.544896 
L 268.253557 242.985103 
L 268.526137 241.817831 
L 268.798718 241.717718 
L 269.071298 240.1748 
L 269.61078 240.417735 
L 269.883361 243.58975 
L 270.155942 241.69813 
L 270.428522 240.767777 
L 270.701103 241.27231 
L 270.973683 242.733688 
L 271.246264 245.48782 
L 271.518844 241.049434 
L 271.791425 243.085905 
L 272.064005 243.796426 
L 272.336586 243.46483 
L 272.609166 243.69519 
L 272.881747 245.886007 
L 273.154327 242.260086 
L 273.426908 241.556124 
L 273.699488 245.392581 
L 273.972069 244.568338 
L 274.244649 244.51059 
L 274.78981 242.175375 
L 275.062391 243.685333 
L 275.334971 243.550556 
L 275.880132 239.35487 
L 276.147034 241.048184 
L 276.692195 238.177759 
L 276.970454 237.551821 
L 277.237356 236.038457 
L 277.509937 237.993841 
L 277.782517 236.746279 
L 278.055098 233.516497 
L 278.327678 235.568587 
L 278.600259 235.88161 
L 278.867161 236.685468 
L 279.139741 234.054444 
L 279.412322 233.704148 
L 279.684902 233.678563 
L 279.951804 233.150256 
L 280.224384 234.906754 
L 280.496965 234.362593 
L 280.769545 234.894179 
L 281.036447 232.349008 
L 281.309028 232.540844 
L 281.581608 234.379462 
L 281.84851 232.076193 
L 282.126769 231.54968 
L 282.39935 227.921947 
L 282.67193 233.462699 
L 282.938832 232.756925 
L 283.211412 233.335986 
L 283.756574 232.204392 
L 284.029154 230.72908 
L 284.301735 234.2191 
L 284.574315 231.909145 
L 284.846896 231.639157 
L 285.113797 232.524663 
L 285.386378 229.33056 
L 285.658958 231.010501 
L 285.931539 230.691934 
L 286.204119 231.650373 
L 286.471021 228.891367 
L 286.743602 231.380602 
L 288.106504 227.201116 
L 288.379085 227.353324 
L 288.651665 229.026253 
L 288.924246 229.207108 
L 289.191148 224.684592 
L 289.463728 226.869411 
L 289.736309 224.779831 
L 290.00321 226.431233 
L 290.28147 226.520365 
L 290.820952 223.262951 
L 291.093532 225.030557 
L 291.360434 223.515616 
L 291.633015 222.750608 
L 291.905595 222.780506 
L 292.450756 223.366235 
L 292.723337 223.139282 
L 292.995917 221.501578 
L 293.262819 222.389114 
L 293.541078 222.041101 
L 293.80798 222.836678 
L 294.080561 221.278938 
L 294.353141 220.889684 
L 294.625722 218.972371 
L 294.898302 218.91031 
L 295.165204 220.26545 
L 295.437784 218.189931 
L 295.977267 220.338836 
L 296.249847 217.179397 
L 296.522428 219.054925 
L 297.06191 218.095127 
L 297.340169 218.502827 
L 297.879651 218.732842 
L 298.152232 218.384141 
L 298.419134 218.435221 
L 298.691714 216.008283 
L 298.964295 216.625939 
L 299.236875 219.852205 
L 299.509456 216.048256 
L 299.776358 218.269315 
L 300.048938 218.278483 
L 300.321519 217.191519 
L 300.594099 218.141224 
L 300.86668 218.208268 
L 301.13926 218.545083 
L 301.406162 217.850181 
L 301.678742 219.027528 
L 301.951323 218.059684 
L 302.223903 218.672032 
L 302.496484 218.948815 
L 302.769064 218.981086 
L 303.041645 220.214388 
L 303.314226 217.572365 
L 303.586806 218.963202 
L 303.859387 219.681316 
L 304.131967 218.757993 
L 304.404548 219.484152 
L 305.21661 215.782236 
L 305.489191 217.077472 
L 305.761771 216.91325 
L 306.028673 216.099789 
L 306.573834 212.909419 
L 306.840736 214.38484 
L 307.113316 214.636708 
L 307.380218 213.066718 
L 307.936737 212.381221 
L 308.203639 211.130379 
L 308.476219 212.516668 
L 308.743121 211.735134 
L 309.015701 212.291074 
L 309.282603 210.591418 
L 309.555184 210.656541 
L 309.822085 209.6665 
L 310.094666 209.67431 
L 310.361568 211.205341 
L 310.634148 210.078839 
L 310.906729 210.973405 
L 311.17363 209.954391 
L 311.446211 212.122449 
L 311.985693 211.84929 
L 312.258274 213.285064 
L 312.530854 210.269099 
L 312.814792 211.355737 
L 313.388347 210.537166 
L 313.666606 212.052107 
L 314.217446 212.607268 
L 314.773965 209.45812 
L 315.052224 210.830257 
L 315.324805 210.899566 
L 315.603064 211.985063 
L 315.881323 211.678056 
L 316.153904 210.531966 
L 316.437842 208.172289 
L 316.710422 211.633082 
L 317.261262 208.221992 
L 317.533842 210.654385 
L 317.812102 209.323018 
L 318.090361 208.923019 
L 319.192041 209.397527 
L 319.464621 210.336379 
L 319.737202 210.800142 
L 320.015461 208.519613 
L 320.288041 208.120303 
L 320.560622 208.557103 
L 320.838881 207.25587 
L 321.111462 206.632198 
L 321.384042 206.68056 
L 321.662302 207.272848 
L 321.934882 206.043968 
L 322.207463 205.612603 
L 322.485722 204.835147 
L 322.758302 205.704907 
L 323.036562 206.171605 
L 323.314821 206.948736 
L 323.587401 205.759828 
L 323.877018 205.60695 
L 324.177993 205.995388 
L 324.461931 204.471732 
L 324.74019 205.908412 
L 325.029807 204.945334 
L 325.313745 204.88735 
L 325.597683 206.130944 
L 325.875942 204.217019 
L 326.426782 205.353379 
L 326.699362 204.992791 
L 326.971943 205.472518 
L 327.244523 205.246815 
L 327.53414 204.30559 
L 327.806721 205.707842 
L 328.096337 204.350654 
L 328.374597 203.88555 
L 328.652856 203.968902 
L 328.936794 203.130399 
L 329.226411 202.656108 
L 329.521706 202.901398 
L 329.822681 203.360632 
L 330.112297 202.38679 
L 330.401914 203.078974 
L 330.691531 202.509209 
L 330.981148 201.328021 
L 331.56606 202.347162 
L 331.855677 201.927448 
L 332.145294 202.907849 
L 332.440589 201.828694 
L 332.730206 204.126093 
L 333.019823 203.011586 
L 333.315119 203.64999 
L 334.479265 201.642403 
L 334.768881 201.388487 
L 335.058498 202.724511 
L 335.348115 202.555651 
L 335.637732 202.634581 
L 335.933027 203.157905 
L 336.234002 202.031421 
L 336.540655 202.753612 
L 336.841629 201.042286 
L 337.136925 202.186909 
L 337.426541 202.58872 
L 337.716158 200.986676 
L 338.011454 202.13764 
L 338.602045 200.865725 
L 338.89734 201.723707 
L 339.181278 200.552032 
L 339.470895 201.689968 
L 339.754833 201.308995 
L 340.04445 201.401407 
L 340.334067 200.415226 
L 340.623684 201.806389 
L 341.469819 200.345917 
L 342.037695 199.044212 
L 342.315954 199.469362 
L 342.594214 199.142857 
L 342.861115 199.700392 
L 343.139375 198.569251 
L 343.428991 198.373555 
L 343.701572 198.855764 
L 343.979831 197.826675 
L 344.252412 197.690992 
L 344.530671 197.707536 
L 344.80893 197.488157 
L 345.081511 198.081587 
L 345.354091 197.104919 
L 345.638029 197.512166 
L 345.916289 198.324975 
L 346.478486 197.328031 
L 346.756745 196.946369 
L 347.052041 195.97492 
L 347.370051 197.092688 
L 347.671026 196.543326 
L 347.972 197.148643 
L 348.272974 196.702093 
L 349.16454 196.140609 
L 349.442799 196.720322 
L 349.738095 196.989984 
L 350.288934 195.855781 
L 350.572872 196.134267 
L 350.845453 196.941622 
L 351.40765 196.244346 
L 351.68591 196.265057 
L 351.95849 195.501643 
L 352.231071 196.739239 
L 352.503651 196.557931 
L 352.503651 196.557931 
" style="fill:none;stroke:#ff7f0e;stroke-linecap:square;stroke-width:1.5;"/>
   </g>
   <g id="line2d_44">
    <path clip-path="url(#pcb117074ef)" d="M 153.928745 475.524028 
L 210.284767 475.524028 
L 210.568705 466.192591 
L 210.846964 452.529549 
L 211.125224 455.755924 
L 211.403483 447.550499 
L 211.687421 454.404389 
L 211.96568 441.343167 
L 212.522199 441.079068 
L 212.800458 426.715906 
L 213.078717 419.035635 
L 213.356977 403.031254 
L 213.635236 405.50621 
L 213.913495 400.177571 
L 214.191754 403.354587 
L 214.470014 402.762842 
L 214.748273 396.566599 
L 215.026532 399.147793 
L 215.86131 379.682166 
L 216.133891 377.040379 
L 216.41215 378.943776 
L 216.96299 380.911028 
L 217.241249 380.506626 
L 217.797767 373.404492 
L 218.076027 376.595986 
L 218.348607 382.85554 
L 218.626866 373.875376 
L 219.734225 366.522842 
L 220.012484 358.99603 
L 220.290743 358.254686 
L 220.563324 347.947015 
L 220.841583 348.152333 
L 221.119842 351.916999 
L 221.398102 344.230603 
L 221.676361 347.300367 
L 221.948942 336.090429 
L 222.227201 340.990856 
L 222.50546 330.371757 
L 222.778041 333.926557 
L 223.0563 335.497905 
L 223.32888 328.28716 
L 223.60714 333.963467 
L 223.87972 331.866657 
L 224.157979 331.262464 
L 224.436239 329.026909 
L 224.708819 331.161553 
L 224.987079 328.904146 
L 225.259659 320.030546 
L 225.53224 325.622378 
L 225.816178 323.868489 
L 226.094437 327.302102 
L 226.367017 319.410063 
L 226.917857 317.779263 
L 227.196116 316.526718 
L 227.468697 318.635759 
L 227.746956 319.272913 
L 228.842957 310.96569 
L 229.393797 300.206813 
L 229.672056 299.426294 
L 229.944637 300.782703 
L 230.217217 296.15134 
L 230.489798 296.499461 
L 230.768057 298.092336 
L 231.046316 290.918628 
L 231.324576 287.653277 
L 231.597156 293.429154 
L 232.147996 289.331316 
L 232.426255 291.224965 
L 232.698836 290.238784 
L 232.977095 294.092799 
L 233.249675 293.047039 
L 233.522256 289.869353 
L 234.073096 288.685338 
L 234.618257 284.475156 
L 234.890837 287.465173 
L 235.169097 286.038568 
L 235.464392 285.610483 
L 235.74833 287.623053 
L 236.29917 285.107653 
L 236.85001 288.047387 
L 237.12259 282.072317 
L 237.395171 280.871088 
L 237.667751 283.039472 
L 237.946011 281.123518 
L 238.218591 281.097914 
L 238.491172 282.700066 
L 238.763752 279.033376 
L 239.314592 276.571085 
L 239.587172 268.186744 
L 239.865432 275.210617 
L 240.410593 271.003262 
L 240.683173 273.813112 
L 241.239692 272.441664 
L 241.512272 272.667131 
L 242.063112 268.968839 
L 242.335693 266.055832 
L 242.608273 267.323217 
L 242.880854 267.890029 
L 243.431693 267.558433 
L 243.704274 264.745647 
L 243.976854 264.997171 
L 244.522016 262.687777 
L 244.794596 266.701918 
L 245.067177 263.826727 
L 245.339757 265.600005 
L 245.612338 266.319025 
L 245.890597 262.091176 
L 246.163177 266.535323 
L 246.441437 264.317779 
L 246.714017 264.694567 
L 246.986598 267.528082 
L 247.259178 267.8479 
L 247.537437 265.037705 
L 247.810018 266.259573 
L 248.355179 264.226962 
L 248.62776 264.530019 
L 248.90034 260.888805 
L 249.172921 260.411107 
L 249.45118 259.689478 
L 249.72376 260.162302 
L 249.990662 261.117787 
L 250.263243 262.565231 
L 250.535823 259.116995 
L 250.808404 261.561963 
L 251.080984 259.127758 
L 251.359243 260.51836 
L 251.631824 257.08529 
L 251.904404 255.20534 
L 252.176985 255.039433 
L 252.449566 259.633868 
L 252.727825 255.278273 
L 253.000405 255.384511 
L 253.272986 253.455854 
L 253.545566 254.245886 
L 253.818147 254.132763 
L 254.096406 253.609874 
L 254.363308 251.720755 
L 254.635888 253.562092 
L 254.908469 251.766961 
L 255.45363 252.348052 
L 255.72621 250.434924 
L 255.998791 249.355298 
L 256.271371 251.746123 
L 256.549631 247.207408 
L 256.822211 247.001854 
L 257.089113 247.031752 
L 257.361694 243.693142 
L 257.634274 246.048072 
L 257.906855 246.348737 
L 258.179435 246.244674 
L 258.452016 242.340031 
L 258.724596 245.517718 
L 258.991498 246.139125 
L 259.264078 250.517243 
L 259.536659 246.702313 
L 259.809239 246.939232 
L 260.08182 244.2518 
L 260.3544 247.650333 
L 260.626981 245.778537 
L 260.893883 246.837977 
L 261.166463 244.529272 
L 261.439044 243.791099 
L 261.717303 245.403453 
L 261.989884 243.45963 
L 262.535045 242.563143 
L 262.801946 245.213863 
L 263.074527 245.075137 
L 263.347107 246.555649 
L 263.619688 242.912732 
L 263.892268 241.732667 
L 264.164849 242.947396 
L 264.437429 242.929167 
L 264.98259 239.345357 
L 265.255171 242.518513 
L 265.527752 240.668914 
L 265.800332 244.458821 
L 266.072913 240.606183 
L 266.345493 241.017616 
L 266.896333 242.45339 
L 267.168913 241.267436 
L 267.435815 237.765529 
L 267.708396 241.794511 
L 268.253557 240.280023 
L 268.798718 240.285676 
L 269.071298 238.351475 
L 269.61078 239.0371 
L 269.883361 242.670957 
L 270.155942 239.576967 
L 270.428522 239.998927 
L 270.701103 240.979328 
L 270.973683 240.162007 
L 271.246264 242.856796 
L 271.518844 239.621578 
L 271.791425 242.875713 
L 272.064005 242.519528 
L 272.336586 239.340265 
L 272.609166 243.089402 
L 272.881747 245.168672 
L 273.426908 239.142757 
L 273.699488 244.411836 
L 273.972069 242.143212 
L 274.244649 242.693027 
L 274.51723 242.755885 
L 274.78981 241.876504 
L 275.062391 242.674798 
L 275.334971 238.962808 
L 275.601873 239.43641 
L 275.880132 237.414907 
L 276.147034 237.197358 
L 276.692195 237.157041 
L 276.970454 237.438807 
L 277.237356 234.765201 
L 277.509937 234.849568 
L 277.782517 233.042206 
L 278.055098 232.273357 
L 278.327678 234.542651 
L 278.600259 234.614352 
L 278.867161 236.003123 
L 279.139741 233.432584 
L 279.412322 232.929862 
L 279.684902 230.354793 
L 279.951804 232.952168 
L 280.224384 232.938125 
L 280.496965 232.724309 
L 280.769545 233.742327 
L 281.036447 231.35161 
L 281.309028 231.533372 
L 281.581608 232.37539 
L 281.84851 230.724205 
L 282.126769 230.274376 
L 282.39935 227.478116 
L 282.67193 231.013455 
L 282.938832 231.605399 
L 283.211412 230.370304 
L 283.756574 231.886948 
L 284.029154 229.767922 
L 284.301735 230.491019 
L 284.574315 230.547535 
L 285.113797 231.502695 
L 285.386378 229.245722 
L 285.658958 228.323758 
L 285.931539 229.659655 
L 286.204119 229.382311 
L 286.471021 228.458861 
L 286.743602 228.191029 
L 287.016182 227.538818 
L 287.294441 228.535309 
L 287.567022 228.007456 
L 287.839602 225.579829 
L 288.106504 225.726039 
L 288.379085 226.427736 
L 288.651665 228.95457 
L 288.924246 227.534632 
L 289.191148 224.40973 
L 289.463728 225.4018 
L 290.00321 223.241896 
L 290.28147 223.93986 
L 290.820952 222.113237 
L 291.093532 220.739415 
L 291.360434 223.137597 
L 291.633015 221.88777 
L 291.905595 222.671786 
L 292.178176 221.402263 
L 292.450756 222.534763 
L 292.723337 220.274963 
L 292.995917 219.727522 
L 293.262819 221.599771 
L 293.541078 220.420159 
L 293.80798 219.842801 
L 294.080561 219.793207 
L 294.353141 216.092994 
L 294.625722 216.634655 
L 294.898302 218.031037 
L 295.165204 217.341788 
L 295.437784 215.863649 
L 295.977267 219.910534 
L 296.249847 216.704997 
L 296.522428 216.104428 
L 296.795008 217.396384 
L 297.06191 217.225041 
L 297.340169 217.240552 
L 297.879651 216.791629 
L 298.152232 217.668745 
L 298.419134 217.011787 
L 298.691714 214.809971 
L 298.964295 216.034213 
L 299.236875 217.845071 
L 299.509456 214.405333 
L 299.776358 216.914047 
L 300.048938 216.697405 
L 300.321519 215.564216 
L 300.594099 216.906346 
L 300.86668 217.168525 
L 301.13926 216.747235 
L 301.406162 215.366491 
L 301.678742 218.180291 
L 301.951323 217.1811 
L 302.223903 217.807019 
L 302.496484 217.529004 
L 302.769064 218.52198 
L 303.041645 217.616433 
L 303.314226 216.10171 
L 303.586806 216.789817 
L 303.859387 218.303507 
L 304.131967 216.508848 
L 304.404548 215.89072 
L 304.949709 215.770331 
L 305.21661 215.404198 
L 305.489191 216.976906 
L 305.761771 214.337166 
L 306.028673 213.706807 
L 306.301254 214.478049 
L 306.573834 210.716446 
L 306.840736 211.507837 
L 307.113316 211.675555 
L 307.380218 212.888345 
L 307.664156 210.858796 
L 307.936737 211.415316 
L 308.203639 210.285643 
L 308.743121 211.443402 
L 309.015701 210.312478 
L 309.822085 208.83684 
L 310.361568 210.093679 
L 310.634148 209.339779 
L 310.906729 210.247138 
L 311.17363 208.626648 
L 311.446211 210.235015 
L 311.985693 211.793227 
L 312.530854 209.770237 
L 312.814792 210.72132 
L 313.110088 210.39005 
L 313.388347 209.873413 
L 313.666606 210.949632 
L 313.944866 211.383153 
L 314.217446 212.528554 
L 314.773965 209.30863 
L 315.052224 210.165598 
L 315.324805 209.565826 
L 315.603064 209.94283 
L 315.881323 209.968651 
L 316.153904 210.209194 
L 316.437842 208.091655 
L 316.710422 209.08146 
L 316.988681 208.816455 
L 317.261262 207.479308 
L 317.533842 209.449405 
L 317.812102 208.353489 
L 318.090361 208.694598 
L 318.362942 207.992774 
L 318.641201 207.942618 
L 319.192041 208.515319 
L 319.464621 207.624159 
L 319.737202 208.28746 
L 320.015461 208.257562 
L 320.288041 207.931855 
L 320.838881 206.455981 
L 321.111462 206.280217 
L 321.384042 205.810673 
L 321.662302 206.90128 
L 321.934882 205.87364 
L 322.207463 205.462316 
L 322.485722 204.281925 
L 323.036562 206.102858 
L 323.314821 206.23537 
L 323.587401 205.491997 
L 323.877018 205.559947 
L 324.461931 204.06742 
L 324.74019 204.294609 
L 325.029807 203.910229 
L 325.313745 204.692796 
L 325.875942 204.152693 
L 326.426782 204.108535 
L 326.699362 204.642513 
L 326.971943 204.765149 
L 327.244523 203.84545 
L 327.53414 204.027556 
L 327.806721 204.015108 
L 328.096337 203.054295 
L 328.374597 203.433456 
L 328.652856 202.531642 
L 328.936794 202.155416 
L 329.226411 202.604575 
L 329.822681 201.621456 
L 330.112297 201.411264 
L 330.401914 202.40299 
L 330.691531 202.186347 
L 330.981148 201.244324 
L 331.276443 201.858031 
L 331.56606 201.765963 
L 331.855677 201.401515 
L 332.145294 202.406052 
L 332.440589 201.421339 
L 332.730206 202.976705 
L 333.019823 202.380557 
L 333.315119 202.186673 
L 334.183969 200.92168 
L 334.479265 201.165738 
L 334.768881 200.84467 
L 335.058498 202.019516 
L 335.348115 201.517266 
L 335.933027 202.188612 
L 336.234002 201.186232 
L 336.540655 201.611254 
L 336.841629 200.20208 
L 337.136925 201.607286 
L 337.426541 201.889179 
L 337.716158 199.987141 
L 338.011454 201.212614 
L 338.602045 200.378424 
L 338.89734 201.193588 
L 339.181278 200.376376 
L 339.754833 200.775125 
L 340.623684 200.192114 
L 340.907622 199.090654 
L 342.037695 199.012502 
L 342.315954 199.362562 
L 342.594214 198.441849 
L 342.861115 198.847846 
L 343.428991 197.89236 
L 343.701572 198.606741 
L 343.979831 197.488846 
L 344.252412 197.268343 
L 344.80893 197.208656 
L 345.081511 197.438671 
L 345.354091 197.026333 
L 345.916289 197.005042 
L 346.200227 196.569147 
L 346.478486 196.964272 
L 347.052041 195.939241 
L 347.370051 195.519546 
L 347.671026 195.781706 
L 347.972 196.415797 
L 348.272974 195.507188 
L 348.869244 195.626454 
L 349.16454 195.933135 
L 349.442799 195.808216 
L 349.738095 196.80063 
L 350.010675 195.836646 
L 350.288934 195.407981 
L 350.572872 195.896098 
L 350.845453 196.651919 
L 351.68591 195.882055 
L 351.95849 195.372991 
L 352.231071 196.307983 
L 352.503651 196.304468 
L 352.503651 196.304468 
" style="fill:none;stroke:#2ca02c;stroke-linecap:square;stroke-width:1.5;"/>
   </g>
   <g id="patch_3">
    <path d="M 144 630 
L 144 86.4 
" style="fill:none;stroke:#000000;stroke-linecap:square;stroke-linejoin:miter;stroke-width:0.8;"/>
   </g>
   <g id="patch_4">
    <path d="M 1036.8 630 
L 1036.8 86.4 
" style="fill:none;stroke:#000000;stroke-linecap:square;stroke-linejoin:miter;stroke-width:0.8;"/>
   </g>
   <g id="patch_5">
    <path d="M 144 630 
L 1036.8 630 
" style="fill:none;stroke:#000000;stroke-linecap:square;stroke-linejoin:miter;stroke-width:0.8;"/>
   </g>
   <g id="patch_6">
    <path d="M 144 86.4 
L 1036.8 86.4 
" style="fill:none;stroke:#000000;stroke-linecap:square;stroke-linejoin:miter;stroke-width:0.8;"/>
   </g>
   <g id="text_44">
    <!-- carracing.cma.16.2 -->
    <defs>
     <path d="M 54.890625 33.015625 
L 54.890625 0 
L 45.90625 0 
L 45.90625 32.71875 
Q 45.90625 40.484375 42.875 44.328125 
Q 39.84375 48.1875 33.796875 48.1875 
Q 26.515625 48.1875 22.3125 43.546875 
Q 18.109375 38.921875 18.109375 30.90625 
L 18.109375 0 
L 9.078125 0 
L 9.078125 54.6875 
L 18.109375 54.6875 
L 18.109375 46.1875 
Q 21.34375 51.125 25.703125 53.5625 
Q 30.078125 56 35.796875 56 
Q 45.21875 56 50.046875 50.171875 
Q 54.890625 44.34375 54.890625 33.015625 
z
" id="DejaVuSans-110"/>
     <path d="M 45.40625 27.984375 
Q 45.40625 37.75 41.375 43.109375 
Q 37.359375 48.484375 30.078125 48.484375 
Q 22.859375 48.484375 18.828125 43.109375 
Q 14.796875 37.75 14.796875 27.984375 
Q 14.796875 18.265625 18.828125 12.890625 
Q 22.859375 7.515625 30.078125 7.515625 
Q 37.359375 7.515625 41.375 12.890625 
Q 45.40625 18.265625 45.40625 27.984375 
z
M 54.390625 6.78125 
Q 54.390625 -7.171875 48.1875 -13.984375 
Q 42 -20.796875 29.203125 -20.796875 
Q 24.46875 -20.796875 20.265625 -20.09375 
Q 16.0625 -19.390625 12.109375 -17.921875 
L 12.109375 -9.1875 
Q 16.0625 -11.328125 19.921875 -12.34375 
Q 23.78125 -13.375 27.78125 -13.375 
Q 36.625 -13.375 41.015625 -8.765625 
Q 45.40625 -4.15625 45.40625 5.171875 
L 45.40625 9.625 
Q 42.625 4.78125 38.28125 2.390625 
Q 33.9375 0 27.875 0 
Q 17.828125 0 11.671875 7.65625 
Q 5.515625 15.328125 5.515625 27.984375 
Q 5.515625 40.671875 11.671875 48.328125 
Q 17.828125 56 27.875 56 
Q 33.9375 56 38.28125 53.609375 
Q 42.625 51.21875 45.40625 46.390625 
L 45.40625 54.6875 
L 54.390625 54.6875 
z
" id="DejaVuSans-103"/>
    </defs>
    <g transform="translate(532.348125 80.4)scale(0.12 -0.12)">
     <use xlink:href="#DejaVuSans-99"/>
     <use x="54.980469" xlink:href="#DejaVuSans-97"/>
     <use x="116.259766" xlink:href="#DejaVuSans-114"/>
     <use x="155.623047" xlink:href="#DejaVuSans-114"/>
     <use x="196.736328" xlink:href="#DejaVuSans-97"/>
     <use x="258.015625" xlink:href="#DejaVuSans-99"/>
     <use x="312.996094" xlink:href="#DejaVuSans-105"/>
     <use x="340.779297" xlink:href="#DejaVuSans-110"/>
     <use x="404.158203" xlink:href="#DejaVuSans-103"/>
     <use x="467.634766" xlink:href="#DejaVuSans-46"/>
     <use x="499.421875" xlink:href="#DejaVuSans-99"/>
     <use x="554.402344" xlink:href="#DejaVuSans-109"/>
     <use x="651.814453" xlink:href="#DejaVuSans-97"/>
     <use x="713.09375" xlink:href="#DejaVuSans-46"/>
     <use x="744.880859" xlink:href="#DejaVuSans-49"/>
     <use x="808.503906" xlink:href="#DejaVuSans-54"/>
     <use x="872.126953" xlink:href="#DejaVuSans-46"/>
     <use x="903.914062" xlink:href="#DejaVuSans-50"/>
    </g>
   </g>
   <g id="legend_1">
    <g id="patch_7">
     <path d="M 969.440625 138.434375 
L 1029.8 138.434375 
Q 1031.8 138.434375 1031.8 136.434375 
L 1031.8 93.4 
Q 1031.8 91.4 1029.8 91.4 
L 969.440625 91.4 
Q 967.440625 91.4 967.440625 93.4 
L 967.440625 136.434375 
Q 967.440625 138.434375 969.440625 138.434375 
z
" style="fill:#ffffff;opacity:0.8;stroke:#cccccc;stroke-linejoin:miter;"/>
    </g>
    <g id="line2d_45">
     <path d="M 971.440625 99.498438 
L 991.440625 99.498438 
" style="fill:none;stroke:#1f77b4;stroke-linecap:square;stroke-width:1.5;"/>
    </g>
    <g id="line2d_46"/>
    <g id="text_45">
     <!-- mean -->
     <g transform="translate(999.440625 102.998438)scale(0.1 -0.1)">
      <use xlink:href="#DejaVuSans-109"/>
      <use x="97.412109" xlink:href="#DejaVuSans-101"/>
      <use x="158.935547" xlink:href="#DejaVuSans-97"/>
      <use x="220.214844" xlink:href="#DejaVuSans-110"/>
     </g>
    </g>
    <g id="line2d_47">
     <path d="M 971.440625 114.176563 
L 991.440625 114.176563 
" style="fill:none;stroke:#ff7f0e;stroke-linecap:square;stroke-width:1.5;"/>
    </g>
    <g id="line2d_48"/>
    <g id="text_46">
     <!-- min -->
     <g transform="translate(999.440625 117.676563)scale(0.1 -0.1)">
      <use xlink:href="#DejaVuSans-109"/>
      <use x="97.412109" xlink:href="#DejaVuSans-105"/>
      <use x="125.195312" xlink:href="#DejaVuSans-110"/>
     </g>
    </g>
    <g id="line2d_49">
     <path d="M 971.440625 128.854688 
L 991.440625 128.854688 
" style="fill:none;stroke:#2ca02c;stroke-linecap:square;stroke-width:1.5;"/>
    </g>
    <g id="line2d_50"/>
    <g id="text_47">
     <!-- max -->
     <defs>
      <path d="M 54.890625 54.6875 
L 35.109375 28.078125 
L 55.90625 0 
L 45.3125 0 
L 29.390625 21.484375 
L 13.484375 0 
L 2.875 0 
L 24.125 28.609375 
L 4.6875 54.6875 
L 15.28125 54.6875 
L 29.78125 35.203125 
L 44.28125 54.6875 
z
" id="DejaVuSans-120"/>
     </defs>
     <g transform="translate(999.440625 132.354688)scale(0.1 -0.1)">
      <use xlink:href="#DejaVuSans-109"/>
      <use x="97.412109" xlink:href="#DejaVuSans-97"/>
      <use x="158.691406" xlink:href="#DejaVuSans-120"/>
     </g>
    </g>
   </g>
  </g>
 </g>
 <defs>
  <clipPath id="pcb117074ef">
   <rect height="543.6" width="892.8" x="144" y="86.4"/>
  </clipPath>
 </defs>
</svg>
